<svg width="960" height="640" viewBox="0 0 960 640" fill="none" xmlns="http://www.w3.org/2000/svg">
<g clip-path="url(#clip0)">
<rect width="960" height="640" fill="white"/>
<rect width="480" height="645" fill="white"/>
<rect x="480" width="480" height="645" fill="#F7F7F7"/>
<rect x="119" y="121" width="220" height="422" rx="12" fill="black"/>
<rect x="132" y="154" width="194" height="339" fill="white"/>
<rect x="601" y="112" width="242" height="334" rx="20" fill="black"/>
<circle cx="541" cy="279" r="32" fill="black"/>
<path d="M658.008 47.3945C656.078 46.8398 654.672 46.1602 653.789 45.3555C652.914 44.543 652.477 43.543 652.477 42.3555C652.477 41.0117 653.012 39.9023 654.082 39.0273C655.16 38.1445 656.559 37.7031 658.277 37.7031C659.449 37.7031 660.492 37.9297 661.406 38.3828C662.328 38.8359 663.039 39.4609 663.539 40.2578C664.047 41.0547 664.301 41.9258 664.301 42.8711H662.039C662.039 41.8398 661.711 41.0312 661.055 40.4453C660.398 39.8516 659.473 39.5547 658.277 39.5547C657.168 39.5547 656.301 39.8008 655.676 40.293C655.059 40.7773 654.75 41.4531 654.75 42.3203C654.75 43.0156 655.043 43.6055 655.629 44.0898C656.223 44.5664 657.227 45.0039 658.641 45.4023C660.062 45.8008 661.172 46.2422 661.969 46.7266C662.773 47.2031 663.367 47.7617 663.75 48.4023C664.141 49.043 664.336 49.7969 664.336 50.6641C664.336 52.0469 663.797 53.1562 662.719 53.9922C661.641 54.8203 660.199 55.2344 658.395 55.2344C657.223 55.2344 656.129 55.0117 655.113 54.5664C654.098 54.1133 653.312 53.4961 652.758 52.7148C652.211 51.9336 651.938 51.0469 651.938 50.0547H654.199C654.199 51.0859 654.578 51.9023 655.336 52.5039C656.102 53.0977 657.121 53.3945 658.395 53.3945C659.582 53.3945 660.492 53.1523 661.125 52.668C661.758 52.1836 662.074 51.5234 662.074 50.6875C662.074 49.8516 661.781 49.207 661.195 48.7539C660.609 48.293 659.547 47.8398 658.008 47.3945ZM672.152 55.2344C670.434 55.2344 669.035 54.6719 667.957 53.5469C666.879 52.4141 666.34 50.9023 666.34 49.0117V48.6133C666.34 47.3555 666.578 46.2344 667.055 45.25C667.539 44.2578 668.211 43.4844 669.07 42.9297C669.938 42.3672 670.875 42.0859 671.883 42.0859C673.531 42.0859 674.812 42.6289 675.727 43.7148C676.641 44.8008 677.098 46.3555 677.098 48.3789V49.2812H668.508C668.539 50.5312 668.902 51.543 669.598 52.3164C670.301 53.082 671.191 53.4648 672.27 53.4648C673.035 53.4648 673.684 53.3086 674.215 52.9961C674.746 52.6836 675.211 52.2695 675.609 51.7539L676.934 52.7852C675.871 54.418 674.277 55.2344 672.152 55.2344ZM671.883 43.8672C671.008 43.8672 670.273 44.1875 669.68 44.8281C669.086 45.4609 668.719 46.3516 668.578 47.5H674.93V47.3359C674.867 46.2344 674.57 45.3828 674.039 44.7812C673.508 44.1719 672.789 43.8672 671.883 43.8672ZM681.973 55H679.805V37H681.973V55ZM690.715 55.2344C688.996 55.2344 687.598 54.6719 686.52 53.5469C685.441 52.4141 684.902 50.9023 684.902 49.0117V48.6133C684.902 47.3555 685.141 46.2344 685.617 45.25C686.102 44.2578 686.773 43.4844 687.633 42.9297C688.5 42.3672 689.438 42.0859 690.445 42.0859C692.094 42.0859 693.375 42.6289 694.289 43.7148C695.203 44.8008 695.66 46.3555 695.66 48.3789V49.2812H687.07C687.102 50.5312 687.465 51.543 688.16 52.3164C688.863 53.082 689.754 53.4648 690.832 53.4648C691.598 53.4648 692.246 53.3086 692.777 52.9961C693.309 52.6836 693.773 52.2695 694.172 51.7539L695.496 52.7852C694.434 54.418 692.84 55.2344 690.715 55.2344ZM690.445 43.8672C689.57 43.8672 688.836 44.1875 688.242 44.8281C687.648 45.4609 687.281 46.3516 687.141 47.5H693.492V47.3359C693.43 46.2344 693.133 45.3828 692.602 44.7812C692.07 44.1719 691.352 43.8672 690.445 43.8672ZM703.266 53.4648C704.039 53.4648 704.715 53.2305 705.293 52.7617C705.871 52.293 706.191 51.707 706.254 51.0039H708.305C708.266 51.7305 708.016 52.4219 707.555 53.0781C707.094 53.7344 706.477 54.2578 705.703 54.6484C704.938 55.0391 704.125 55.2344 703.266 55.2344C701.539 55.2344 700.164 54.6602 699.141 53.5117C698.125 52.3555 697.617 50.7773 697.617 48.7773V48.4141C697.617 47.1797 697.844 46.082 698.297 45.1211C698.75 44.1602 699.398 43.4141 700.242 42.8828C701.094 42.3516 702.098 42.0859 703.254 42.0859C704.676 42.0859 705.855 42.5117 706.793 43.3633C707.738 44.2148 708.242 45.3203 708.305 46.6797H706.254C706.191 45.8594 705.879 45.1875 705.316 44.6641C704.762 44.1328 704.074 43.8672 703.254 43.8672C702.152 43.8672 701.297 44.2656 700.688 45.0625C700.086 45.8516 699.785 46.9961 699.785 48.4961V48.9062C699.785 50.3672 700.086 51.4922 700.688 52.2812C701.289 53.0703 702.148 53.4648 703.266 53.4648ZM713.684 39.25V42.3203H716.051V43.9961H713.684V51.8594C713.684 52.3672 713.789 52.75 714 53.0078C714.211 53.2578 714.57 53.3828 715.078 53.3828C715.328 53.3828 715.672 53.3359 716.109 53.2422V55C715.539 55.1562 714.984 55.2344 714.445 55.2344C713.477 55.2344 712.746 54.9414 712.254 54.3555C711.762 53.7695 711.516 52.9375 711.516 51.8594V43.9961H709.207V42.3203H711.516V39.25H713.684ZM732.375 55C732.25 54.75 732.148 54.3047 732.07 53.6641C731.062 54.7109 729.859 55.2344 728.461 55.2344C727.211 55.2344 726.184 54.8828 725.379 54.1797C724.582 53.4688 724.184 52.5703 724.184 51.4844C724.184 50.1641 724.684 49.1406 725.684 48.4141C726.691 47.6797 728.105 47.3125 729.926 47.3125H732.035V46.3164C732.035 45.5586 731.809 44.957 731.355 44.5117C730.902 44.0586 730.234 43.832 729.352 43.832C728.578 43.832 727.93 44.0273 727.406 44.418C726.883 44.8086 726.621 45.2812 726.621 45.8359H724.441C724.441 45.2031 724.664 44.5938 725.109 44.0078C725.562 43.4141 726.172 42.9453 726.938 42.6016C727.711 42.2578 728.559 42.0859 729.48 42.0859C730.941 42.0859 732.086 42.4531 732.914 43.1875C733.742 43.9141 734.172 44.918 734.203 46.1992V52.0352C734.203 53.1992 734.352 54.125 734.648 54.8125V55H732.375ZM728.777 53.3477C729.457 53.3477 730.102 53.1719 730.711 52.8203C731.32 52.4688 731.762 52.0117 732.035 51.4492V48.8477H730.336C727.68 48.8477 726.352 49.625 726.352 51.1797C726.352 51.8594 726.578 52.3906 727.031 52.7734C727.484 53.1562 728.066 53.3477 728.777 53.3477ZM754.266 48.8008C754.266 50.7305 753.824 52.2852 752.941 53.4648C752.059 54.6445 750.863 55.2344 749.355 55.2344C747.816 55.2344 746.605 54.7461 745.723 53.7695V59.875H743.555V42.3203H745.535L745.641 43.7266C746.523 42.6328 747.75 42.0859 749.32 42.0859C750.844 42.0859 752.047 42.6602 752.93 43.8086C753.82 44.957 754.266 46.5547 754.266 48.6016V48.8008ZM752.098 48.5547C752.098 47.125 751.793 45.9961 751.184 45.168C750.574 44.3398 749.738 43.9258 748.676 43.9258C747.363 43.9258 746.379 44.5078 745.723 45.6719V51.7305C746.371 52.8867 747.363 53.4648 748.699 53.4648C749.738 53.4648 750.562 53.0547 751.172 52.2344C751.789 51.4062 752.098 50.1797 752.098 48.5547ZM759.387 55H757.219V37H759.387V55ZM770.695 55C770.57 54.75 770.469 54.3047 770.391 53.6641C769.383 54.7109 768.18 55.2344 766.781 55.2344C765.531 55.2344 764.504 54.8828 763.699 54.1797C762.902 53.4688 762.504 52.5703 762.504 51.4844C762.504 50.1641 763.004 49.1406 764.004 48.4141C765.012 47.6797 766.426 47.3125 768.246 47.3125H770.355V46.3164C770.355 45.5586 770.129 44.957 769.676 44.5117C769.223 44.0586 768.555 43.832 767.672 43.832C766.898 43.832 766.25 44.0273 765.727 44.418C765.203 44.8086 764.941 45.2812 764.941 45.8359H762.762C762.762 45.2031 762.984 44.5938 763.43 44.0078C763.883 43.4141 764.492 42.9453 765.258 42.6016C766.031 42.2578 766.879 42.0859 767.801 42.0859C769.262 42.0859 770.406 42.4531 771.234 43.1875C772.062 43.9141 772.492 44.918 772.523 46.1992V52.0352C772.523 53.1992 772.672 54.125 772.969 54.8125V55H770.695ZM767.098 53.3477C767.777 53.3477 768.422 53.1719 769.031 52.8203C769.641 52.4688 770.082 52.0117 770.355 51.4492V48.8477H768.656C766 48.8477 764.672 49.625 764.672 51.1797C764.672 51.8594 764.898 52.3906 765.352 52.7734C765.805 53.1562 766.387 53.3477 767.098 53.3477ZM777.973 42.3203L778.043 43.9141C779.012 42.6953 780.277 42.0859 781.84 42.0859C784.52 42.0859 785.871 43.5977 785.895 46.6211V55H783.727V46.6094C783.719 45.6953 783.508 45.0195 783.094 44.582C782.688 44.1445 782.051 43.9258 781.184 43.9258C780.48 43.9258 779.863 44.1133 779.332 44.4883C778.801 44.8633 778.387 45.3555 778.09 45.9648V55H775.922V42.3203H777.973Z" fill="black"/>
<rect x="532" y="550" width="387" height="72" fill="white"/>
<path d="M677.303 595.805H668.963L667.09 601H664.383L671.984 581.094H674.281L681.896 601H679.203L677.303 595.805ZM669.756 593.645H676.523L673.133 584.334L669.756 593.645ZM683.564 593.48C683.564 591.211 684.102 589.388 685.178 588.012C686.253 586.626 687.661 585.934 689.402 585.934C691.134 585.934 692.506 586.526 693.518 587.711V580H696.047V601H693.723L693.6 599.414C692.588 600.654 691.18 601.273 689.375 601.273C687.661 601.273 686.262 600.572 685.178 599.168C684.102 597.764 683.564 595.932 683.564 593.672V593.48ZM686.094 593.768C686.094 595.445 686.44 596.757 687.133 597.705C687.826 598.653 688.783 599.127 690.004 599.127C691.608 599.127 692.779 598.407 693.518 596.967V590.172C692.761 588.777 691.599 588.08 690.031 588.08C688.792 588.08 687.826 588.559 687.133 589.516C686.44 590.473 686.094 591.89 686.094 593.768ZM699.369 593.48C699.369 591.211 699.907 589.388 700.982 588.012C702.058 586.626 703.466 585.934 705.207 585.934C706.939 585.934 708.311 586.526 709.322 587.711V580H711.852V601H709.527L709.404 599.414C708.393 600.654 706.984 601.273 705.18 601.273C703.466 601.273 702.067 600.572 700.982 599.168C699.907 597.764 699.369 595.932 699.369 593.672V593.48ZM701.898 593.768C701.898 595.445 702.245 596.757 702.938 597.705C703.63 598.653 704.587 599.127 705.809 599.127C707.413 599.127 708.584 598.407 709.322 596.967V590.172C708.566 588.777 707.404 588.08 705.836 588.08C704.596 588.08 703.63 588.559 702.938 589.516C702.245 590.473 701.898 591.89 701.898 593.768ZM726.166 582.625V586.207H728.928V588.162H726.166V597.336C726.166 597.928 726.289 598.375 726.535 598.676C726.781 598.967 727.201 599.113 727.793 599.113C728.085 599.113 728.486 599.059 728.996 598.949V601C728.331 601.182 727.684 601.273 727.055 601.273C725.924 601.273 725.072 600.932 724.498 600.248C723.924 599.564 723.637 598.594 723.637 597.336V588.162H720.943V586.207H723.637V582.625H726.166ZM730.951 593.467C730.951 592.018 731.234 590.714 731.799 589.557C732.373 588.399 733.166 587.506 734.178 586.877C735.199 586.248 736.361 585.934 737.664 585.934C739.678 585.934 741.305 586.631 742.545 588.025C743.794 589.42 744.418 591.275 744.418 593.59V593.768C744.418 595.208 744.14 596.502 743.584 597.65C743.037 598.79 742.249 599.678 741.219 600.316C740.198 600.954 739.022 601.273 737.691 601.273C735.686 601.273 734.059 600.576 732.811 599.182C731.571 597.787 730.951 595.941 730.951 593.645V593.467ZM733.494 593.768C733.494 595.408 733.872 596.725 734.629 597.719C735.395 598.712 736.415 599.209 737.691 599.209C738.977 599.209 739.997 598.708 740.754 597.705C741.51 596.693 741.889 595.281 741.889 593.467C741.889 591.844 741.501 590.532 740.727 589.529C739.961 588.518 738.94 588.012 737.664 588.012C736.415 588.012 735.408 588.508 734.643 589.502C733.877 590.495 733.494 591.917 733.494 593.768ZM760.469 599.209C761.371 599.209 762.16 598.936 762.834 598.389C763.508 597.842 763.882 597.158 763.955 596.338H766.348C766.302 597.186 766.01 597.992 765.473 598.758C764.935 599.523 764.215 600.134 763.312 600.59C762.419 601.046 761.471 601.273 760.469 601.273C758.454 601.273 756.85 600.604 755.656 599.264C754.471 597.915 753.879 596.074 753.879 593.74V593.316C753.879 591.876 754.143 590.596 754.672 589.475C755.201 588.354 755.957 587.483 756.941 586.863C757.935 586.243 759.106 585.934 760.455 585.934C762.114 585.934 763.49 586.43 764.584 587.424C765.687 588.417 766.275 589.707 766.348 591.293H763.955C763.882 590.336 763.518 589.552 762.861 588.941C762.214 588.322 761.412 588.012 760.455 588.012C759.17 588.012 758.172 588.477 757.461 589.406C756.759 590.327 756.408 591.662 756.408 593.412V593.891C756.408 595.595 756.759 596.908 757.461 597.828C758.163 598.749 759.165 599.209 760.469 599.209ZM778.324 601C778.178 600.708 778.06 600.189 777.969 599.441C776.793 600.663 775.389 601.273 773.758 601.273C772.299 601.273 771.101 600.863 770.162 600.043C769.232 599.214 768.768 598.165 768.768 596.898C768.768 595.358 769.351 594.164 770.518 593.316C771.693 592.46 773.343 592.031 775.467 592.031H777.928V590.869C777.928 589.985 777.663 589.283 777.135 588.764C776.606 588.235 775.827 587.971 774.797 587.971C773.895 587.971 773.138 588.199 772.527 588.654C771.917 589.11 771.611 589.661 771.611 590.309H769.068C769.068 589.57 769.328 588.859 769.848 588.176C770.376 587.483 771.087 586.936 771.98 586.535C772.883 586.134 773.872 585.934 774.947 585.934C776.652 585.934 777.987 586.362 778.953 587.219C779.919 588.066 780.421 589.238 780.457 590.732V597.541C780.457 598.899 780.63 599.979 780.977 600.781V601H778.324ZM774.127 599.072C774.92 599.072 775.672 598.867 776.383 598.457C777.094 598.047 777.609 597.514 777.928 596.857V593.822H775.945C772.846 593.822 771.297 594.729 771.297 596.543C771.297 597.336 771.561 597.956 772.09 598.402C772.618 598.849 773.298 599.072 774.127 599.072ZM791.572 588.477C791.189 588.413 790.775 588.381 790.328 588.381C788.669 588.381 787.544 589.087 786.951 590.5V601H784.422V586.207H786.883L786.924 587.916C787.753 586.594 788.929 585.934 790.451 585.934C790.943 585.934 791.317 585.997 791.572 586.125V588.477ZM798.025 582.625V586.207H800.787V588.162H798.025V597.336C798.025 597.928 798.148 598.375 798.395 598.676C798.641 598.967 799.06 599.113 799.652 599.113C799.944 599.113 800.345 599.059 800.855 598.949V601C800.19 601.182 799.543 601.273 798.914 601.273C797.784 601.273 796.932 600.932 796.357 600.248C795.783 599.564 795.496 598.594 795.496 597.336V588.162H792.803V586.207H795.496V582.625H798.025Z" fill="#C4C4C4"/>
<path d="M28.0723 32.7812L32.7207 44.3828L37.3691 32.7812H39.8008V47H37.9258V41.4629L38.1016 35.4863L33.4336 47H31.998L27.3398 35.5156L27.5254 41.4629V47H25.6504V32.7812H28.0723ZM42.3496 41.6191C42.3496 40.584 42.5514 39.653 42.9551 38.8262C43.3652 37.9993 43.9316 37.3613 44.6543 36.9121C45.3835 36.4629 46.2135 36.2383 47.1445 36.2383C48.5833 36.2383 49.7454 36.7363 50.6309 37.7324C51.5228 38.7285 51.9688 40.0534 51.9688 41.707V41.834C51.9688 42.8626 51.7702 43.7871 51.373 44.6074C50.9824 45.4212 50.4193 46.056 49.6836 46.5117C48.9544 46.9674 48.1146 47.1953 47.1641 47.1953C45.7318 47.1953 44.5697 46.6973 43.6777 45.7012C42.7923 44.7051 42.3496 43.3867 42.3496 41.7461V41.6191ZM44.166 41.834C44.166 43.0059 44.4362 43.9466 44.9766 44.6562C45.5234 45.3659 46.2526 45.7207 47.1641 45.7207C48.082 45.7207 48.8112 45.3626 49.3516 44.6465C49.8919 43.9238 50.1621 42.9147 50.1621 41.6191C50.1621 40.4603 49.8854 39.5228 49.332 38.8066C48.7852 38.084 48.056 37.7227 47.1445 37.7227C46.2526 37.7227 45.5332 38.0775 44.9863 38.7871C44.4395 39.4967 44.166 40.5124 44.166 41.834ZM56.6855 33.875V36.4336H58.6582V37.8301H56.6855V44.3828C56.6855 44.806 56.7734 45.125 56.9492 45.3398C57.125 45.5482 57.4245 45.6523 57.8477 45.6523C58.056 45.6523 58.3424 45.6133 58.707 45.5352V47C58.2318 47.1302 57.7695 47.1953 57.3203 47.1953C56.513 47.1953 55.9043 46.9512 55.4941 46.4629C55.084 45.9746 54.8789 45.2812 54.8789 44.3828V37.8301H52.9551V36.4336H54.8789V33.875H56.6855ZM60.1035 41.6191C60.1035 40.584 60.3053 39.653 60.709 38.8262C61.1191 37.9993 61.6855 37.3613 62.4082 36.9121C63.1374 36.4629 63.9674 36.2383 64.8984 36.2383C66.3372 36.2383 67.4993 36.7363 68.3848 37.7324C69.2767 38.7285 69.7227 40.0534 69.7227 41.707V41.834C69.7227 42.8626 69.5241 43.7871 69.127 44.6074C68.7363 45.4212 68.1732 46.056 67.4375 46.5117C66.7083 46.9674 65.8685 47.1953 64.918 47.1953C63.4857 47.1953 62.3236 46.6973 61.4316 45.7012C60.5462 44.7051 60.1035 43.3867 60.1035 41.7461V41.6191ZM61.9199 41.834C61.9199 43.0059 62.1901 43.9466 62.7305 44.6562C63.2773 45.3659 64.0065 45.7207 64.918 45.7207C65.8359 45.7207 66.5651 45.3626 67.1055 44.6465C67.6458 43.9238 67.916 42.9147 67.916 41.6191C67.916 40.4603 67.6393 39.5228 67.0859 38.8066C66.5391 38.084 65.8099 37.7227 64.8984 37.7227C64.0065 37.7227 63.2871 38.0775 62.7402 38.7871C62.1934 39.4967 61.9199 40.5124 61.9199 41.834ZM77.0957 38.0547C76.8223 38.0091 76.526 37.9863 76.207 37.9863C75.0221 37.9863 74.2181 38.4909 73.7949 39.5V47H71.9883V36.4336H73.7461L73.7754 37.6543C74.3678 36.7103 75.2077 36.2383 76.2949 36.2383C76.6465 36.2383 76.9134 36.2839 77.0957 36.375V38.0547ZM78.0918 41.6191C78.0918 40.584 78.2936 39.653 78.6973 38.8262C79.1074 37.9993 79.6738 37.3613 80.3965 36.9121C81.1257 36.4629 81.9557 36.2383 82.8867 36.2383C84.3255 36.2383 85.4876 36.7363 86.373 37.7324C87.265 38.7285 87.7109 40.0534 87.7109 41.707V41.834C87.7109 42.8626 87.5124 43.7871 87.1152 44.6074C86.7246 45.4212 86.1615 46.056 85.4258 46.5117C84.6966 46.9674 83.8568 47.1953 82.9062 47.1953C81.474 47.1953 80.3118 46.6973 79.4199 45.7012C78.5345 44.7051 78.0918 43.3867 78.0918 41.7461V41.6191ZM79.9082 41.834C79.9082 43.0059 80.1784 43.9466 80.7188 44.6562C81.2656 45.3659 81.9948 45.7207 82.9062 45.7207C83.8242 45.7207 84.5534 45.3626 85.0938 44.6465C85.6341 43.9238 85.9043 42.9147 85.9043 41.6191C85.9043 40.4603 85.6276 39.5228 85.0742 38.8066C84.5273 38.084 83.7982 37.7227 82.8867 37.7227C81.9948 37.7227 81.2754 38.0775 80.7285 38.7871C80.1816 39.4967 79.9082 40.5124 79.9082 41.834ZM91.9395 47H90.1328V32H91.9395V47ZM101.363 47C101.259 46.7917 101.174 46.4206 101.109 45.8867C100.27 46.7591 99.2669 47.1953 98.1016 47.1953C97.0599 47.1953 96.2038 46.9023 95.5332 46.3164C94.8691 45.724 94.5371 44.9753 94.5371 44.0703C94.5371 42.9701 94.9538 42.1172 95.7871 41.5117C96.627 40.8997 97.8053 40.5938 99.3223 40.5938H101.08V39.7637C101.08 39.1322 100.891 38.6309 100.514 38.2598C100.136 37.8822 99.5794 37.6934 98.8438 37.6934C98.1992 37.6934 97.6589 37.8561 97.2227 38.1816C96.7865 38.5072 96.5684 38.901 96.5684 39.3633H94.752C94.752 38.8359 94.9375 38.3281 95.3086 37.8398C95.6862 37.3451 96.194 36.9544 96.832 36.668C97.4766 36.3815 98.1829 36.2383 98.9512 36.2383C100.169 36.2383 101.122 36.5443 101.812 37.1562C102.503 37.7617 102.861 38.5983 102.887 39.666V44.5293C102.887 45.4993 103.01 46.2708 103.258 46.8438V47H101.363ZM98.3652 45.623C98.9316 45.623 99.4688 45.4766 99.9766 45.1836C100.484 44.8906 100.852 44.5098 101.08 44.041V41.873H99.6641C97.4505 41.873 96.3438 42.5208 96.3438 43.8164C96.3438 44.3828 96.5326 44.8255 96.9102 45.1445C97.2878 45.4635 97.7728 45.623 98.3652 45.623ZM121.461 45.1348C120.979 45.8249 120.305 46.3424 119.439 46.6875C118.58 47.026 117.577 47.1953 116.432 47.1953C115.273 47.1953 114.244 46.9251 113.346 46.3848C112.447 45.8379 111.751 45.0632 111.256 44.0605C110.768 43.0579 110.517 41.8958 110.504 40.5742V39.334C110.504 37.1921 111.002 35.5319 111.998 34.3535C113.001 33.1751 114.407 32.5859 116.217 32.5859C117.701 32.5859 118.896 32.9668 119.801 33.7285C120.706 34.4837 121.259 35.5579 121.461 36.9512H119.586C119.234 35.0697 118.115 34.1289 116.227 34.1289C114.97 34.1289 114.016 34.5716 113.365 35.457C112.721 36.3359 112.395 37.612 112.389 39.2852V40.4473C112.389 42.0423 112.753 43.3118 113.482 44.2559C114.212 45.1934 115.198 45.6621 116.441 45.6621C117.145 45.6621 117.76 45.584 118.287 45.4277C118.814 45.2715 119.251 45.0078 119.596 44.6367V41.4434H116.305V39.9199H121.461V45.1348ZM129.205 41.2285C129.205 39.7572 129.4 38.3444 129.791 36.9902C130.188 35.6361 130.777 34.4056 131.559 33.2988C132.34 32.1921 133.15 31.4108 133.99 30.9551L134.361 32.1465C133.411 32.8757 132.63 33.9889 132.018 35.4863C131.412 36.9837 131.08 38.6602 131.021 40.5156L131.012 41.3457C131.012 43.8587 131.471 46.0397 132.389 47.8887C132.942 48.9954 133.6 49.8613 134.361 50.4863L133.99 51.5898C133.124 51.1081 132.298 50.3008 131.51 49.168C129.973 46.9544 129.205 44.3079 129.205 41.2285ZM145.24 47H135.924V45.7012L140.846 40.2324C141.575 39.4056 142.076 38.735 142.35 38.2207C142.63 37.6999 142.77 37.1628 142.77 36.6094C142.77 35.8672 142.545 35.2585 142.096 34.7832C141.646 34.3079 141.048 34.0703 140.299 34.0703C139.4 34.0703 138.701 34.3275 138.199 34.8418C137.704 35.3496 137.457 36.0592 137.457 36.9707H135.65C135.65 35.6621 136.07 34.6042 136.91 33.7969C137.757 32.9896 138.886 32.5859 140.299 32.5859C141.62 32.5859 142.665 32.9342 143.434 33.6309C144.202 34.321 144.586 35.2422 144.586 36.3945C144.586 37.7943 143.694 39.4609 141.91 41.3945L138.102 45.5254H145.24V47ZM149.049 36.4336L149.107 37.7617C149.915 36.7461 150.969 36.2383 152.271 36.2383C154.505 36.2383 155.631 37.498 155.65 40.0176V47H153.844V40.0078C153.837 39.2461 153.661 38.6829 153.316 38.3184C152.978 37.9538 152.447 37.7715 151.725 37.7715C151.139 37.7715 150.624 37.9277 150.182 38.2402C149.739 38.5527 149.394 38.9629 149.146 39.4707V47H147.34V36.4336H149.049ZM157.936 41.6289C157.936 40.0078 158.32 38.7057 159.088 37.7227C159.856 36.7331 160.862 36.2383 162.105 36.2383C163.342 36.2383 164.322 36.6615 165.045 37.5078V32H166.852V47H165.191L165.104 45.8672C164.381 46.7526 163.375 47.1953 162.086 47.1953C160.862 47.1953 159.863 46.694 159.088 45.6914C158.32 44.6888 157.936 43.3802 157.936 41.7656V41.6289ZM159.742 41.834C159.742 43.0319 159.99 43.9694 160.484 44.6465C160.979 45.3236 161.663 45.6621 162.535 45.6621C163.681 45.6621 164.518 45.1478 165.045 44.1191V39.2656C164.505 38.2695 163.674 37.7715 162.555 37.7715C161.669 37.7715 160.979 38.1133 160.484 38.7969C159.99 39.4805 159.742 40.4928 159.742 41.834ZM185.406 45.1348C184.924 45.8249 184.251 46.3424 183.385 46.6875C182.525 47.026 181.523 47.1953 180.377 47.1953C179.218 47.1953 178.189 46.9251 177.291 46.3848C176.393 45.8379 175.696 45.0632 175.201 44.0605C174.713 43.0579 174.462 41.8958 174.449 40.5742V39.334C174.449 37.1921 174.947 35.5319 175.943 34.3535C176.946 33.1751 178.352 32.5859 180.162 32.5859C181.646 32.5859 182.841 32.9668 183.746 33.7285C184.651 34.4837 185.204 35.5579 185.406 36.9512H183.531C183.18 35.0697 182.06 34.1289 180.172 34.1289C178.915 34.1289 177.962 34.5716 177.311 35.457C176.666 36.3359 176.34 37.612 176.334 39.2852V40.4473C176.334 42.0423 176.699 43.3118 177.428 44.2559C178.157 45.1934 179.143 45.6621 180.387 45.6621C181.09 45.6621 181.705 45.584 182.232 45.4277C182.76 45.2715 183.196 45.0078 183.541 44.6367V41.4434H180.25V39.9199H185.406V45.1348ZM196.578 40.4277H190.416V45.4668H197.574V47H188.541V32.7812H197.477V34.3242H190.416V38.8945H196.578V40.4277ZM210.836 47H208.951L201.793 36.043V47H199.908V32.7812H201.793L208.971 43.7871V32.7812H210.836V47ZM218.053 41.3262C218.053 42.778 217.861 44.1712 217.477 45.5059C217.099 46.834 216.516 48.0612 215.729 49.1875C214.947 50.3138 214.127 51.1146 213.268 51.5898L212.887 50.4863C213.889 49.7181 214.693 48.5267 215.299 46.9121C215.911 45.291 216.223 43.4941 216.236 41.5215V41.209C216.236 39.8418 216.093 38.5723 215.807 37.4004C215.52 36.222 215.12 35.1673 214.605 34.2363C214.098 33.3053 213.525 32.5794 212.887 32.0586L213.268 30.9551C214.127 31.4303 214.944 32.2246 215.719 33.3379C216.5 34.4512 217.083 35.6784 217.467 37.0195C217.857 38.3607 218.053 39.7962 218.053 41.3262Z" fill="black"/>
<path d="M419.422 43.2305C419.422 42.7161 419.295 42.3125 419.041 42.0195C418.787 41.7266 418.341 41.4499 417.703 41.1895C417.065 40.929 416.476 40.6654 415.936 40.3984C415.395 40.1315 414.93 39.8223 414.539 39.4707C414.148 39.1191 413.849 38.7122 413.641 38.25C413.432 37.7878 413.328 37.2279 413.328 36.5703C413.328 35.4701 413.699 34.5651 414.441 33.8555C415.184 33.1393 416.173 32.7227 417.41 32.6055V30.5449H418.963V32.6445C420.154 32.8203 421.089 33.3118 421.766 34.1191C422.449 34.9199 422.791 35.9388 422.791 37.1758H419.49C419.49 36.4987 419.36 35.9779 419.1 35.6133C418.839 35.2487 418.468 35.0664 417.986 35.0664C417.557 35.0664 417.221 35.2031 416.98 35.4766C416.746 35.7435 416.629 36.1146 416.629 36.5898C416.629 37.0716 416.766 37.4557 417.039 37.7422C417.312 38.0221 417.752 38.2923 418.357 38.5527C418.963 38.8066 419.533 39.0736 420.066 39.3535C420.607 39.627 421.072 39.9395 421.463 40.291C421.854 40.6426 422.16 41.0527 422.381 41.5215C422.602 41.9902 422.713 42.5534 422.713 43.2109C422.713 44.3242 422.358 45.2324 421.648 45.9355C420.945 46.6387 419.985 47.0488 418.768 47.166V49.1289H417.215V47.1562C415.796 47.0065 414.705 46.5215 413.943 45.7012C413.188 44.8743 412.811 43.7871 412.811 42.4395H416.102C416.102 43.1816 416.264 43.748 416.59 44.1387C416.922 44.5228 417.391 44.7148 417.996 44.7148C418.439 44.7148 418.787 44.5846 419.041 44.3242C419.295 44.0573 419.422 43.6927 419.422 43.2305ZM431.746 47H428.445V36.4922L425.203 37.4395V34.9395L431.443 32.7812H431.746V47ZM442.518 41.502C441.808 42.14 441.014 42.459 440.135 42.459C438.846 42.459 437.824 42.0228 437.068 41.1504C436.313 40.278 435.936 39.1126 435.936 37.6543C435.936 36.7428 436.147 35.8965 436.57 35.1152C436.993 34.334 437.586 33.7155 438.348 33.2598C439.116 32.804 439.962 32.5762 440.887 32.5762C441.824 32.5762 442.671 32.8138 443.426 33.2891C444.188 33.7578 444.78 34.4251 445.203 35.291C445.626 36.1504 445.844 37.1432 445.857 38.2695V39.5293C445.857 41.0983 445.548 42.459 444.93 43.6113C444.318 44.7637 443.442 45.6491 442.303 46.2676C441.163 46.8861 439.835 47.1953 438.318 47.1953H438.113V44.5586L438.738 44.5488C441.004 44.4382 442.264 43.4225 442.518 41.502ZM441.023 40.0859C441.74 40.0859 442.254 39.7767 442.566 39.1582V37.791C442.566 36.8796 442.413 36.2057 442.107 35.7695C441.801 35.3333 441.388 35.1152 440.867 35.1152C440.405 35.1152 440.018 35.3626 439.705 35.8574C439.393 36.3522 439.236 36.9512 439.236 37.6543C439.236 38.3965 439.396 38.9889 439.715 39.4316C440.034 39.8678 440.47 40.0859 441.023 40.0859ZM454.1 41.502C453.39 42.14 452.596 42.459 451.717 42.459C450.428 42.459 449.406 42.0228 448.65 41.1504C447.895 40.278 447.518 39.1126 447.518 37.6543C447.518 36.7428 447.729 35.8965 448.152 35.1152C448.576 34.334 449.168 33.7155 449.93 33.2598C450.698 32.804 451.544 32.5762 452.469 32.5762C453.406 32.5762 454.253 32.8138 455.008 33.2891C455.77 33.7578 456.362 34.4251 456.785 35.291C457.208 36.1504 457.426 37.1432 457.439 38.2695V39.5293C457.439 41.0983 457.13 42.459 456.512 43.6113C455.9 44.7637 455.024 45.6491 453.885 46.2676C452.745 46.8861 451.417 47.1953 449.9 47.1953H449.695V44.5586L450.32 44.5488C452.586 44.4382 453.846 43.4225 454.1 41.502ZM452.605 40.0859C453.322 40.0859 453.836 39.7767 454.148 39.1582V37.791C454.148 36.8796 453.995 36.2057 453.689 35.7695C453.383 35.3333 452.97 35.1152 452.449 35.1152C451.987 35.1152 451.6 35.3626 451.287 35.8574C450.975 36.3522 450.818 36.9512 450.818 37.6543C450.818 38.3965 450.978 38.9889 451.297 39.4316C451.616 39.8678 452.052 40.0859 452.605 40.0859Z" fill="black"/>
<circle cx="902" cy="279" r="32" fill="black"/>
<path d="M919 280L893.5 294.722L893.5 265.278L919 280Z" fill="white"/>
<path d="M525 280L550.5 265.278L550.5 294.722L525 280Z" fill="white"/>
<path d="M689.222 189H684.317V156.489L674.482 160.102V155.672L688.457 150.425H689.222V189ZM733.123 183.964C731.822 185.827 730.003 187.225 727.665 188.156C725.345 189.07 722.638 189.527 719.544 189.527C716.415 189.527 713.638 188.798 711.212 187.339C708.786 185.862 706.905 183.771 705.569 181.063C704.251 178.356 703.574 175.219 703.539 171.65V168.302C703.539 162.519 704.884 158.036 707.573 154.854C710.28 151.673 714.077 150.082 718.964 150.082C722.972 150.082 726.197 151.11 728.641 153.167C731.084 155.206 732.578 158.106 733.123 161.868H728.061C727.111 156.788 724.088 154.248 718.99 154.248C715.598 154.248 713.022 155.443 711.265 157.834C709.524 160.207 708.646 163.652 708.628 168.17V171.308C708.628 175.614 709.612 179.042 711.581 181.591C713.55 184.122 716.213 185.388 719.57 185.388C721.469 185.388 723.13 185.177 724.554 184.755C725.978 184.333 727.155 183.621 728.087 182.619V173.997H719.201V169.884H733.123V183.964ZM741.587 189V150.609H754.138C758.304 150.609 761.433 151.471 763.524 153.193C765.634 154.916 766.688 157.465 766.688 160.84C766.688 162.633 766.179 164.224 765.159 165.612C764.14 166.983 762.751 168.047 760.993 168.803C763.067 169.383 764.702 170.49 765.897 172.125C767.11 173.742 767.717 175.676 767.717 177.926C767.717 181.371 766.601 184.078 764.368 186.047C762.136 188.016 758.98 189 754.902 189H741.587ZM746.649 171.044V184.86H755.008C757.363 184.86 759.218 184.254 760.571 183.041C761.942 181.811 762.628 180.123 762.628 177.979C762.628 173.355 760.114 171.044 755.087 171.044H746.649ZM746.649 166.983H754.296C756.511 166.983 758.277 166.43 759.596 165.322C760.932 164.215 761.6 162.712 761.6 160.813C761.6 158.704 760.984 157.175 759.754 156.226C758.523 155.259 756.651 154.775 754.138 154.775H746.649V166.983Z" fill="white"/>
<path d="M651.57 331.112C651.57 329.495 650.999 328.133 649.856 327.025C648.731 325.918 646.824 324.916 644.135 324.02C640.391 322.877 637.657 321.392 635.935 319.563C634.229 317.718 633.377 315.38 633.377 312.55C633.377 309.667 634.212 307.303 635.882 305.457C637.569 303.611 639.881 302.513 642.816 302.161V296.387H646.745V302.188C649.698 302.592 651.992 303.831 653.627 305.905C655.279 307.979 656.105 310.818 656.105 314.422H651.254C651.254 311.943 650.665 309.975 649.487 308.516C648.31 307.057 646.719 306.327 644.715 306.327C642.623 306.327 641.023 306.872 639.916 307.962C638.809 309.034 638.255 310.537 638.255 312.471C638.255 314.264 638.835 315.696 639.995 316.769C641.173 317.823 643.098 318.79 645.77 319.669C648.459 320.53 650.551 321.488 652.045 322.543C653.557 323.58 654.664 324.793 655.367 326.182C656.088 327.57 656.448 329.196 656.448 331.06C656.448 334.03 655.552 336.421 653.759 338.231C651.983 340.042 649.487 341.114 646.271 341.448V346.484H642.368V341.448C639.099 341.149 636.532 339.989 634.669 337.968C632.823 335.929 631.9 333.169 631.9 329.688H636.778C636.778 332.132 637.42 334.013 638.703 335.331C639.986 336.649 641.806 337.309 644.161 337.309C646.464 337.309 648.274 336.755 649.593 335.647C650.911 334.54 651.57 333.028 651.57 331.112ZM687.667 341H662.513V337.493L675.802 322.728C677.771 320.495 679.124 318.685 679.862 317.296C680.618 315.89 680.996 314.439 680.996 312.945C680.996 310.941 680.39 309.298 679.177 308.015C677.964 306.731 676.347 306.09 674.325 306.09C671.899 306.09 670.01 306.784 668.656 308.173C667.32 309.544 666.652 311.46 666.652 313.921H661.774C661.774 310.388 662.908 307.531 665.176 305.352C667.461 303.172 670.511 302.082 674.325 302.082C677.894 302.082 680.715 303.022 682.789 304.903C684.863 306.767 685.9 309.254 685.9 312.365C685.9 316.145 683.492 320.645 678.676 325.865L668.393 337.019H687.667V341ZM716.908 324.626C716.908 330.339 715.933 334.584 713.981 337.361C712.03 340.139 708.98 341.527 704.832 341.527C700.736 341.527 697.704 340.174 695.735 337.467C693.767 334.742 692.747 330.682 692.677 325.285V318.772C692.677 313.13 693.652 308.938 695.604 306.195C697.555 303.453 700.613 302.082 704.779 302.082C708.91 302.082 711.951 303.409 713.902 306.063C715.854 308.7 716.855 312.778 716.908 318.298V324.626ZM712.03 317.955C712.03 313.824 711.45 310.818 710.29 308.938C709.13 307.039 707.293 306.09 704.779 306.09C702.283 306.09 700.464 307.03 699.321 308.911C698.179 310.792 697.59 313.684 697.555 317.586V325.391C697.555 329.539 698.152 332.606 699.348 334.593C700.561 336.562 702.389 337.546 704.832 337.546C707.24 337.546 709.024 336.614 710.185 334.751C711.362 332.888 711.978 329.952 712.03 325.944V317.955ZM724.634 344.296H720.441L736.473 302.609H740.639L724.634 344.296ZM750.5 312.471L750.632 315.635C752.724 313.174 755.545 311.943 759.096 311.943C763.086 311.943 765.802 313.473 767.243 316.531C768.192 315.16 769.423 314.053 770.935 313.209C772.464 312.365 774.266 311.943 776.34 311.943C782.598 311.943 785.779 315.257 785.885 321.884V341H781.007V322.174C781.007 320.135 780.541 318.614 779.609 317.612C778.678 316.593 777.113 316.083 774.916 316.083C773.105 316.083 771.603 316.628 770.407 317.718C769.212 318.79 768.518 320.24 768.324 322.068V341H763.42V322.306C763.42 318.157 761.39 316.083 757.329 316.083C754.13 316.083 751.941 317.445 750.764 320.17V341H745.886V312.471H750.5ZM791.976 326.472C791.976 323.677 792.521 321.163 793.61 318.931C794.718 316.698 796.247 314.976 798.198 313.763C800.167 312.55 802.408 311.943 804.922 311.943C808.807 311.943 811.944 313.288 814.335 315.978C816.743 318.667 817.947 322.244 817.947 326.709V327.052C817.947 329.829 817.411 332.325 816.339 334.54C815.284 336.737 813.764 338.451 811.777 339.682C809.809 340.912 807.541 341.527 804.975 341.527C801.107 341.527 797.97 340.183 795.562 337.493C793.171 334.804 791.976 331.244 791.976 326.814V326.472ZM796.88 327.052C796.88 330.216 797.609 332.756 799.068 334.672C800.545 336.588 802.514 337.546 804.975 337.546C807.453 337.546 809.422 336.579 810.881 334.646C812.34 332.694 813.069 329.97 813.069 326.472C813.069 323.343 812.322 320.812 810.828 318.878C809.352 316.927 807.383 315.951 804.922 315.951C802.514 315.951 800.571 316.909 799.095 318.825C797.618 320.741 796.88 323.483 796.88 327.052Z" fill="white"/>
<path d="M661.57 232.27H663.938V234.039H661.57V238H659.391V234.039H651.621V232.762L659.262 220.938H661.57V232.27ZM654.082 232.27H659.391V223.902L659.133 224.371L654.082 232.27ZM679.055 235.762C678.477 236.59 677.668 237.211 676.629 237.625C675.598 238.031 674.395 238.234 673.02 238.234C671.629 238.234 670.395 237.91 669.316 237.262C668.238 236.605 667.402 235.676 666.809 234.473C666.223 233.27 665.922 231.875 665.906 230.289V228.801C665.906 226.23 666.504 224.238 667.699 222.824C668.902 221.41 670.59 220.703 672.762 220.703C674.543 220.703 675.977 221.16 677.062 222.074C678.148 222.98 678.812 224.27 679.055 225.941H676.805C676.383 223.684 675.039 222.555 672.773 222.555C671.266 222.555 670.121 223.086 669.34 224.148C668.566 225.203 668.176 226.734 668.168 228.742V230.137C668.168 232.051 668.605 233.574 669.48 234.707C670.355 235.832 671.539 236.395 673.031 236.395C673.875 236.395 674.613 236.301 675.246 236.113C675.879 235.926 676.402 235.609 676.816 235.164V231.332H672.867V229.504H679.055V235.762ZM688.863 239.465H687L694.125 220.938H695.977L688.863 239.465ZM706.875 236.16H714.961V238H704.613V220.938H706.875V236.16ZM726.082 222.789H720.598V238H718.359V222.789H712.887V220.938H726.082V222.789ZM738.258 230.113H730.863V236.16H739.453V238H728.613V220.938H739.336V222.789H730.863V228.273H738.258V230.113ZM748.207 238V220.938H753.023C754.508 220.938 755.82 221.266 756.961 221.922C758.102 222.578 758.98 223.512 759.598 224.723C760.223 225.934 760.539 227.324 760.547 228.895V229.984C760.547 231.594 760.234 233.004 759.609 234.215C758.992 235.426 758.105 236.355 756.949 237.004C755.801 237.652 754.461 237.984 752.93 238H748.207ZM750.457 222.789V236.16H752.824C754.559 236.16 755.906 235.621 756.867 234.543C757.836 233.465 758.32 231.93 758.32 229.938V228.941C758.32 227.004 757.863 225.5 756.949 224.43C756.043 223.352 754.754 222.805 753.082 222.789H750.457ZM773.121 233.547H765.973L764.367 238H762.047L768.562 220.938H770.531L777.059 238H774.75L773.121 233.547ZM766.652 231.695H772.453L769.547 223.715L766.652 231.695ZM789.621 222.789H784.137V238H781.898V222.789H776.426V220.938H789.621V222.789ZM800.637 233.547H793.488L791.883 238H789.562L796.078 220.938H798.047L804.574 238H802.266L800.637 233.547ZM794.168 231.695H799.969L797.062 223.715L794.168 231.695Z" fill="white"/>
<rect x="621.5" y="370.5" width="200" height="53" rx="9.5" fill="white" stroke="white"/>
<path d="M665.84 398.662C664.232 398.2 663.06 397.633 662.324 396.963C661.595 396.286 661.23 395.452 661.23 394.463C661.23 393.343 661.676 392.419 662.568 391.689C663.467 390.954 664.632 390.586 666.064 390.586C667.041 390.586 667.91 390.775 668.672 391.152C669.44 391.53 670.033 392.051 670.449 392.715C670.872 393.379 671.084 394.105 671.084 394.893H669.199C669.199 394.033 668.926 393.359 668.379 392.871C667.832 392.376 667.061 392.129 666.064 392.129C665.14 392.129 664.417 392.334 663.896 392.744C663.382 393.148 663.125 393.711 663.125 394.434C663.125 395.013 663.369 395.505 663.857 395.908C664.352 396.305 665.189 396.67 666.367 397.002C667.552 397.334 668.477 397.702 669.141 398.105C669.811 398.503 670.306 398.968 670.625 399.502C670.951 400.036 671.113 400.664 671.113 401.387C671.113 402.539 670.664 403.464 669.766 404.16C668.867 404.85 667.666 405.195 666.162 405.195C665.186 405.195 664.274 405.01 663.428 404.639C662.581 404.261 661.927 403.747 661.465 403.096C661.009 402.445 660.781 401.706 660.781 400.879H662.666C662.666 401.738 662.982 402.419 663.613 402.92C664.251 403.415 665.101 403.662 666.162 403.662C667.152 403.662 667.91 403.46 668.438 403.057C668.965 402.653 669.229 402.103 669.229 401.406C669.229 400.71 668.984 400.173 668.496 399.795C668.008 399.411 667.122 399.033 665.84 398.662ZM681.562 398.428H675.4V403.467H682.559V405H673.525V390.781H682.461V392.324H675.4V396.895H681.562V398.428ZM686.777 403.467H693.516V405H684.893V390.781H686.777V403.467ZM703.691 398.428H697.529V403.467H704.688V405H695.654V390.781H704.59V392.324H697.529V396.895H703.691V398.428ZM717.48 400.488C717.305 401.992 716.748 403.154 715.811 403.975C714.88 404.788 713.639 405.195 712.09 405.195C710.41 405.195 709.062 404.593 708.047 403.389C707.038 402.184 706.533 400.573 706.533 398.555V397.188C706.533 395.866 706.768 394.704 707.236 393.701C707.712 392.699 708.382 391.93 709.248 391.396C710.114 390.856 711.117 390.586 712.256 390.586C713.766 390.586 714.977 391.009 715.889 391.855C716.8 392.695 717.331 393.861 717.48 395.352H715.596C715.433 394.219 715.078 393.398 714.531 392.891C713.991 392.383 713.232 392.129 712.256 392.129C711.058 392.129 710.117 392.572 709.434 393.457C708.757 394.342 708.418 395.602 708.418 397.236V398.613C708.418 400.156 708.74 401.383 709.385 402.295C710.029 403.206 710.931 403.662 712.09 403.662C713.132 403.662 713.929 403.428 714.482 402.959C715.042 402.484 715.413 401.66 715.596 400.488H717.48ZM729.58 392.324H725.01V405H723.145V392.324H718.584V390.781H729.58V392.324ZM738.135 399.434V405H736.26V390.781H741.504C743.06 390.781 744.277 391.178 745.156 391.973C746.042 392.767 746.484 393.818 746.484 395.127C746.484 396.507 746.051 397.572 745.186 398.32C744.326 399.062 743.092 399.434 741.484 399.434H738.135ZM738.135 397.9H741.504C742.507 397.9 743.275 397.666 743.809 397.197C744.342 396.722 744.609 396.038 744.609 395.146C744.609 394.3 744.342 393.623 743.809 393.115C743.275 392.607 742.542 392.344 741.611 392.324H738.135V397.9ZM750.762 403.467H757.5V405H748.877V390.781H750.762V403.467ZM767.686 401.289H761.729L760.391 405H758.457L763.887 390.781H765.527L770.967 405H769.043L767.686 401.289ZM762.295 399.746H767.129L764.707 393.096L762.295 399.746ZM783.809 405H781.924L774.766 394.043V405H772.881V390.781H774.766L781.943 401.787V390.781H783.809V405Z" fill="black"/>
<path d="M660.438 473.656H656.328L655.547 476H653.055L657.289 464.625H659.461L663.719 476H661.227L660.438 473.656ZM656.961 471.758H659.805L658.375 467.5L656.961 471.758ZM667.016 476H664.75V464H667.016V476ZM671.266 476H669V464H671.266V476ZM684.727 471.852C684.727 473.154 684.43 474.198 683.836 474.984C683.247 475.766 682.451 476.156 681.445 476.156C680.591 476.156 679.901 475.859 679.375 475.266V479.25H677.117V467.547H679.211L679.289 468.375C679.836 467.719 680.549 467.391 681.43 467.391C682.471 467.391 683.281 467.776 683.859 468.547C684.438 469.318 684.727 470.38 684.727 471.734V471.852ZM682.469 471.688C682.469 470.901 682.328 470.294 682.047 469.867C681.771 469.44 681.367 469.227 680.836 469.227C680.128 469.227 679.641 469.497 679.375 470.039V473.5C679.651 474.057 680.143 474.336 680.852 474.336C681.93 474.336 682.469 473.453 682.469 471.688ZM688.516 476H686.25V464H688.516V476ZM695.281 476C695.177 475.797 695.102 475.544 695.055 475.242C694.508 475.852 693.797 476.156 692.922 476.156C692.094 476.156 691.406 475.917 690.859 475.438C690.318 474.958 690.047 474.354 690.047 473.625C690.047 472.729 690.378 472.042 691.039 471.562C691.706 471.083 692.667 470.841 693.922 470.836H694.961V470.352C694.961 469.961 694.859 469.648 694.656 469.414C694.458 469.18 694.143 469.062 693.711 469.062C693.331 469.062 693.031 469.154 692.812 469.336C692.599 469.518 692.492 469.768 692.492 470.086H690.234C690.234 469.596 690.385 469.143 690.688 468.727C690.99 468.31 691.417 467.984 691.969 467.75C692.521 467.51 693.141 467.391 693.828 467.391C694.87 467.391 695.695 467.654 696.305 468.18C696.919 468.701 697.227 469.435 697.227 470.383V474.047C697.232 474.849 697.344 475.456 697.562 475.867V476H695.281ZM693.414 474.43C693.747 474.43 694.055 474.357 694.336 474.211C694.617 474.06 694.826 473.859 694.961 473.609V472.156H694.117C692.987 472.156 692.385 472.547 692.312 473.328L692.305 473.461C692.305 473.742 692.404 473.974 692.602 474.156C692.799 474.339 693.07 474.43 693.414 474.43ZM701.039 467.547L701.109 468.523C701.714 467.768 702.523 467.391 703.539 467.391C704.435 467.391 705.102 467.654 705.539 468.18C705.977 468.706 706.201 469.492 706.211 470.539V476H703.953V470.594C703.953 470.115 703.849 469.768 703.641 469.555C703.432 469.336 703.086 469.227 702.602 469.227C701.966 469.227 701.49 469.497 701.172 470.039V476H698.914V467.547H701.039ZM712.508 473.664C712.508 473.388 712.37 473.172 712.094 473.016C711.823 472.854 711.385 472.711 710.781 472.586C708.771 472.164 707.766 471.31 707.766 470.023C707.766 469.273 708.076 468.648 708.695 468.148C709.32 467.643 710.135 467.391 711.141 467.391C712.214 467.391 713.07 467.643 713.711 468.148C714.357 468.654 714.68 469.31 714.68 470.117H712.422C712.422 469.794 712.318 469.529 712.109 469.32C711.901 469.107 711.576 469 711.133 469C710.753 469 710.458 469.086 710.25 469.258C710.042 469.43 709.938 469.648 709.938 469.914C709.938 470.164 710.055 470.367 710.289 470.523C710.529 470.674 710.93 470.807 711.492 470.922C712.055 471.031 712.529 471.156 712.914 471.297C714.107 471.734 714.703 472.492 714.703 473.57C714.703 474.341 714.372 474.966 713.711 475.445C713.049 475.919 712.195 476.156 711.148 476.156C710.44 476.156 709.81 476.031 709.258 475.781C708.711 475.526 708.281 475.18 707.969 474.742C707.656 474.299 707.5 473.823 707.5 473.312H709.641C709.661 473.714 709.81 474.021 710.086 474.234C710.362 474.448 710.732 474.555 711.195 474.555C711.628 474.555 711.953 474.474 712.172 474.312C712.396 474.146 712.508 473.93 712.508 473.664ZM723.664 474.336C724.081 474.336 724.419 474.221 724.68 473.992C724.94 473.763 725.076 473.458 725.086 473.078H727.203C727.198 473.651 727.042 474.177 726.734 474.656C726.427 475.13 726.005 475.5 725.469 475.766C724.938 476.026 724.349 476.156 723.703 476.156C722.495 476.156 721.542 475.773 720.844 475.008C720.146 474.237 719.797 473.174 719.797 471.82V471.672C719.797 470.37 720.143 469.331 720.836 468.555C721.529 467.779 722.479 467.391 723.688 467.391C724.745 467.391 725.591 467.693 726.227 468.297C726.867 468.896 727.193 469.695 727.203 470.695H725.086C725.076 470.258 724.94 469.904 724.68 469.633C724.419 469.357 724.076 469.219 723.648 469.219C723.122 469.219 722.724 469.411 722.453 469.797C722.188 470.177 722.055 470.797 722.055 471.656V471.891C722.055 472.76 722.188 473.385 722.453 473.766C722.719 474.146 723.122 474.336 723.664 474.336ZM728.141 471.695C728.141 470.857 728.302 470.109 728.625 469.453C728.948 468.797 729.411 468.289 730.016 467.93C730.625 467.57 731.331 467.391 732.133 467.391C733.273 467.391 734.203 467.74 734.922 468.438C735.646 469.135 736.049 470.083 736.133 471.281L736.148 471.859C736.148 473.156 735.786 474.198 735.062 474.984C734.339 475.766 733.367 476.156 732.148 476.156C730.93 476.156 729.956 475.766 729.227 474.984C728.503 474.203 728.141 473.141 728.141 471.797V471.695ZM730.398 471.859C730.398 472.661 730.549 473.276 730.852 473.703C731.154 474.125 731.586 474.336 732.148 474.336C732.695 474.336 733.122 474.128 733.43 473.711C733.737 473.289 733.891 472.617 733.891 471.695C733.891 470.909 733.737 470.299 733.43 469.867C733.122 469.435 732.69 469.219 732.133 469.219C731.581 469.219 731.154 469.435 730.852 469.867C730.549 470.294 730.398 470.958 730.398 471.859ZM739.656 467.547L739.727 468.492C740.326 467.758 741.135 467.391 742.156 467.391C743.245 467.391 743.992 467.82 744.398 468.68C744.992 467.82 745.839 467.391 746.938 467.391C747.854 467.391 748.536 467.659 748.984 468.195C749.432 468.727 749.656 469.529 749.656 470.602V476H747.391V470.609C747.391 470.13 747.297 469.781 747.109 469.562C746.922 469.339 746.591 469.227 746.117 469.227C745.44 469.227 744.971 469.549 744.711 470.195L744.719 476H742.461V470.617C742.461 470.128 742.365 469.773 742.172 469.555C741.979 469.336 741.651 469.227 741.188 469.227C740.547 469.227 740.083 469.492 739.797 470.023V476H737.539V467.547H739.656ZM755.289 476.156C754.049 476.156 753.039 475.776 752.258 475.016C751.482 474.255 751.094 473.242 751.094 471.977V471.758C751.094 470.909 751.258 470.151 751.586 469.484C751.914 468.812 752.378 468.297 752.977 467.938C753.581 467.573 754.268 467.391 755.039 467.391C756.195 467.391 757.104 467.755 757.766 468.484C758.432 469.214 758.766 470.247 758.766 471.586V472.508H753.383C753.456 473.06 753.674 473.503 754.039 473.836C754.409 474.169 754.875 474.336 755.438 474.336C756.307 474.336 756.987 474.021 757.477 473.391L758.586 474.633C758.247 475.112 757.789 475.487 757.211 475.758C756.633 476.023 755.992 476.156 755.289 476.156ZM755.031 469.219C754.583 469.219 754.219 469.37 753.938 469.672C753.661 469.974 753.484 470.406 753.406 470.969H756.547V470.789C756.536 470.289 756.401 469.904 756.141 469.633C755.88 469.357 755.51 469.219 755.031 469.219ZM771.391 472.93L772.5 467.547H774.68L772.523 476H770.633L769.031 470.68L767.43 476H765.547L763.391 467.547H765.57L766.672 472.922L768.219 467.547H769.852L771.391 472.93ZM778.188 476H775.922V467.547H778.188V476ZM775.789 465.359C775.789 465.021 775.901 464.742 776.125 464.523C776.354 464.305 776.664 464.195 777.055 464.195C777.44 464.195 777.747 464.305 777.977 464.523C778.206 464.742 778.32 465.021 778.32 465.359C778.32 465.703 778.203 465.984 777.969 466.203C777.74 466.422 777.435 466.531 777.055 466.531C776.674 466.531 776.367 466.422 776.133 466.203C775.904 465.984 775.789 465.703 775.789 465.359ZM782.758 465.469V467.547H784.203V469.203H782.758V473.422C782.758 473.734 782.818 473.958 782.938 474.094C783.057 474.229 783.286 474.297 783.625 474.297C783.875 474.297 784.096 474.279 784.289 474.242V475.953C783.846 476.089 783.391 476.156 782.922 476.156C781.339 476.156 780.531 475.357 780.5 473.758V469.203H779.266V467.547H780.5V465.469H782.758ZM787.664 468.469C788.263 467.75 789.016 467.391 789.922 467.391C791.755 467.391 792.685 468.456 792.711 470.586V476H790.453V470.648C790.453 470.164 790.349 469.807 790.141 469.578C789.932 469.344 789.586 469.227 789.102 469.227C788.44 469.227 787.961 469.482 787.664 469.992V476H785.406V464H787.664V468.469ZM798.508 474.891C798.508 474.531 798.628 474.24 798.867 474.016C799.112 473.792 799.417 473.68 799.781 473.68C800.151 473.68 800.456 473.792 800.695 474.016C800.94 474.24 801.062 474.531 801.062 474.891C801.062 475.245 800.943 475.534 800.703 475.758C800.464 475.977 800.156 476.086 799.781 476.086C799.411 476.086 799.107 475.977 798.867 475.758C798.628 475.534 798.508 475.245 798.508 474.891ZM798.508 468.492C798.508 468.133 798.628 467.841 798.867 467.617C799.112 467.393 799.417 467.281 799.781 467.281C800.151 467.281 800.456 467.393 800.695 467.617C800.94 467.841 801.062 468.133 801.062 468.492C801.062 468.846 800.943 469.135 800.703 469.359C800.464 469.578 800.156 469.688 799.781 469.688C799.411 469.688 799.107 469.578 798.867 469.359C798.628 469.135 798.508 468.846 798.508 468.492Z" fill="black"/>
<path d="M553.102 505.758H549.289V504.578H553.102V505.758ZM563.703 509.164C563.141 509.826 562.315 510.156 561.227 510.156C560.326 510.156 559.638 509.896 559.164 509.375C558.695 508.849 558.458 508.073 558.453 507.047V501.547H559.898V507.008C559.898 508.289 560.419 508.93 561.461 508.93C562.565 508.93 563.299 508.518 563.664 507.695V501.547H565.109V510H563.734L563.703 509.164ZM568.68 501.547L568.727 502.609C569.372 501.797 570.216 501.391 571.258 501.391C573.044 501.391 573.945 502.398 573.961 504.414V510H572.516V504.406C572.51 503.797 572.37 503.346 572.094 503.055C571.823 502.763 571.398 502.617 570.82 502.617C570.352 502.617 569.94 502.742 569.586 502.992C569.232 503.242 568.956 503.57 568.758 503.977V510H567.312V501.547H568.68ZM577.711 510H576.266V498H577.711V510ZM581.602 510H580.156V501.547H581.602V510ZM580.039 499.305C580.039 499.07 580.109 498.872 580.25 498.711C580.396 498.549 580.609 498.469 580.891 498.469C581.172 498.469 581.385 498.549 581.531 498.711C581.677 498.872 581.75 499.07 581.75 499.305C581.75 499.539 581.677 499.734 581.531 499.891C581.385 500.047 581.172 500.125 580.891 500.125C580.609 500.125 580.396 500.047 580.25 499.891C580.109 499.734 580.039 499.539 580.039 499.305ZM585.281 501.547L585.32 502.484C585.94 501.755 586.776 501.391 587.828 501.391C589.01 501.391 589.815 501.844 590.242 502.75C590.523 502.344 590.888 502.016 591.336 501.766C591.789 501.516 592.323 501.391 592.938 501.391C594.792 501.391 595.734 502.372 595.766 504.336V510H594.32V504.422C594.32 503.818 594.182 503.367 593.906 503.07C593.63 502.768 593.167 502.617 592.516 502.617C591.979 502.617 591.534 502.779 591.18 503.102C590.826 503.419 590.62 503.849 590.562 504.391V510H589.109V504.461C589.109 503.232 588.508 502.617 587.305 502.617C586.357 502.617 585.708 503.021 585.359 503.828V510H583.914V501.547H585.281ZM599.523 510H598.078V501.547H599.523V510ZM597.961 499.305C597.961 499.07 598.031 498.872 598.172 498.711C598.318 498.549 598.531 498.469 598.812 498.469C599.094 498.469 599.307 498.549 599.453 498.711C599.599 498.872 599.672 499.07 599.672 499.305C599.672 499.539 599.599 499.734 599.453 499.891C599.307 500.047 599.094 500.125 598.812 500.125C598.531 500.125 598.318 500.047 598.172 499.891C598.031 499.734 597.961 499.539 597.961 499.305ZM603.805 499.5V501.547H605.383V502.664H603.805V507.906C603.805 508.245 603.875 508.5 604.016 508.672C604.156 508.839 604.396 508.922 604.734 508.922C604.901 508.922 605.13 508.891 605.422 508.828V510C605.042 510.104 604.672 510.156 604.312 510.156C603.667 510.156 603.18 509.961 602.852 509.57C602.523 509.18 602.359 508.625 602.359 507.906V502.664H600.82V501.547H602.359V499.5H603.805ZM610.586 510.156C609.44 510.156 608.508 509.781 607.789 509.031C607.07 508.276 606.711 507.268 606.711 506.008V505.742C606.711 504.904 606.87 504.156 607.188 503.5C607.51 502.839 607.958 502.323 608.531 501.953C609.109 501.578 609.734 501.391 610.406 501.391C611.505 501.391 612.359 501.753 612.969 502.477C613.578 503.201 613.883 504.237 613.883 505.586V506.188H608.156C608.177 507.021 608.419 507.695 608.883 508.211C609.352 508.721 609.945 508.977 610.664 508.977C611.174 508.977 611.607 508.872 611.961 508.664C612.315 508.456 612.625 508.18 612.891 507.836L613.773 508.523C613.065 509.612 612.003 510.156 610.586 510.156ZM610.406 502.578C609.823 502.578 609.333 502.792 608.938 503.219C608.542 503.641 608.297 504.234 608.203 505H612.438V504.891C612.396 504.156 612.198 503.589 611.844 503.188C611.49 502.781 611.01 502.578 610.406 502.578ZM615.211 505.703C615.211 504.406 615.518 503.365 616.133 502.578C616.747 501.786 617.552 501.391 618.547 501.391C619.536 501.391 620.32 501.729 620.898 502.406V498H622.344V510H621.016L620.945 509.094C620.367 509.802 619.562 510.156 618.531 510.156C617.552 510.156 616.753 509.755 616.133 508.953C615.518 508.151 615.211 507.104 615.211 505.812V505.703ZM616.656 505.867C616.656 506.826 616.854 507.576 617.25 508.117C617.646 508.659 618.193 508.93 618.891 508.93C619.807 508.93 620.477 508.518 620.898 507.695V503.812C620.466 503.016 619.802 502.617 618.906 502.617C618.198 502.617 617.646 502.891 617.25 503.438C616.854 503.984 616.656 504.794 616.656 505.867ZM630.523 499.5V501.547H632.102V502.664H630.523V507.906C630.523 508.245 630.594 508.5 630.734 508.672C630.875 508.839 631.115 508.922 631.453 508.922C631.62 508.922 631.849 508.891 632.141 508.828V510C631.76 510.104 631.391 510.156 631.031 510.156C630.385 510.156 629.898 509.961 629.57 509.57C629.242 509.18 629.078 508.625 629.078 507.906V502.664H627.539V501.547H629.078V499.5H630.523ZM639.016 510C638.932 509.833 638.865 509.536 638.812 509.109C638.141 509.807 637.339 510.156 636.406 510.156C635.573 510.156 634.888 509.922 634.352 509.453C633.82 508.979 633.555 508.38 633.555 507.656C633.555 506.776 633.888 506.094 634.555 505.609C635.227 505.12 636.169 504.875 637.383 504.875H638.789V504.211C638.789 503.706 638.638 503.305 638.336 503.008C638.034 502.706 637.589 502.555 637 502.555C636.484 502.555 636.052 502.685 635.703 502.945C635.354 503.206 635.18 503.521 635.18 503.891H633.727C633.727 503.469 633.875 503.062 634.172 502.672C634.474 502.276 634.88 501.964 635.391 501.734C635.906 501.505 636.471 501.391 637.086 501.391C638.06 501.391 638.823 501.635 639.375 502.125C639.927 502.609 640.214 503.279 640.234 504.133V508.023C640.234 508.799 640.333 509.417 640.531 509.875V510H639.016ZM636.617 508.898C637.07 508.898 637.5 508.781 637.906 508.547C638.312 508.312 638.607 508.008 638.789 507.633V505.898H637.656C635.885 505.898 635 506.417 635 507.453C635 507.906 635.151 508.26 635.453 508.516C635.755 508.771 636.143 508.898 636.617 508.898ZM644.07 510H642.625V498H644.07V510ZM648.75 506.086L647.844 507.031V510H646.398V498H647.844V505.258L648.617 504.328L651.25 501.547H653.008L649.719 505.078L653.391 510H651.695L648.75 506.086ZM658.164 506.945C658.164 506.398 658.315 505.896 658.617 505.438C658.924 504.979 659.508 504.445 660.367 503.836C659.862 503.221 659.523 502.727 659.352 502.352C659.18 501.977 659.094 501.604 659.094 501.234C659.094 500.37 659.349 499.693 659.859 499.203C660.37 498.714 661.062 498.469 661.938 498.469C662.719 498.469 663.365 498.698 663.875 499.156C664.385 499.609 664.641 500.182 664.641 500.875C664.641 501.333 664.523 501.758 664.289 502.148C664.06 502.534 663.656 502.94 663.078 503.367L662.242 503.984L664.773 507.008C665.128 506.331 665.305 505.578 665.305 504.75H666.609C666.609 506.078 666.289 507.18 665.648 508.055L667.273 510H665.539L664.781 509.102C664.396 509.445 663.943 509.708 663.422 509.891C662.906 510.068 662.38 510.156 661.844 510.156C660.734 510.156 659.844 509.862 659.172 509.273C658.5 508.685 658.164 507.909 658.164 506.945ZM661.844 508.977C662.609 508.977 663.31 508.685 663.945 508.102L661.172 504.781L660.914 504.969C660.044 505.609 659.609 506.268 659.609 506.945C659.609 507.56 659.807 508.052 660.203 508.422C660.604 508.792 661.151 508.977 661.844 508.977ZM660.539 501.188C660.539 501.688 660.846 502.312 661.461 503.062L662.383 502.414C662.737 502.164 662.979 501.927 663.109 501.703C663.24 501.474 663.305 501.198 663.305 500.875C663.305 500.526 663.174 500.237 662.914 500.008C662.654 499.773 662.326 499.656 661.93 499.656C661.503 499.656 661.164 499.802 660.914 500.094C660.664 500.38 660.539 500.745 660.539 501.188ZM674.352 499.5V501.547H675.93V502.664H674.352V507.906C674.352 508.245 674.422 508.5 674.562 508.672C674.703 508.839 674.943 508.922 675.281 508.922C675.448 508.922 675.677 508.891 675.969 508.828V510C675.589 510.104 675.219 510.156 674.859 510.156C674.214 510.156 673.727 509.961 673.398 509.57C673.07 509.18 672.906 508.625 672.906 507.906V502.664H671.367V501.547H672.906V499.5H674.352ZM681.133 510.156C679.987 510.156 679.055 509.781 678.336 509.031C677.617 508.276 677.258 507.268 677.258 506.008V505.742C677.258 504.904 677.417 504.156 677.734 503.5C678.057 502.839 678.505 502.323 679.078 501.953C679.656 501.578 680.281 501.391 680.953 501.391C682.052 501.391 682.906 501.753 683.516 502.477C684.125 503.201 684.43 504.237 684.43 505.586V506.188H678.703C678.724 507.021 678.966 507.695 679.43 508.211C679.898 508.721 680.492 508.977 681.211 508.977C681.721 508.977 682.154 508.872 682.508 508.664C682.862 508.456 683.172 508.18 683.438 507.836L684.32 508.523C683.612 509.612 682.549 510.156 681.133 510.156ZM680.953 502.578C680.37 502.578 679.88 502.792 679.484 503.219C679.089 503.641 678.844 504.234 678.75 505H682.984V504.891C682.943 504.156 682.745 503.589 682.391 503.188C682.036 502.781 681.557 502.578 680.953 502.578ZM688.945 504.633L690.82 501.547H692.508L689.742 505.727L692.594 510H690.922L688.969 506.836L687.016 510H685.336L688.188 505.727L685.422 501.547H687.094L688.945 504.633ZM696.008 499.5V501.547H697.586V502.664H696.008V507.906C696.008 508.245 696.078 508.5 696.219 508.672C696.359 508.839 696.599 508.922 696.938 508.922C697.104 508.922 697.333 508.891 697.625 508.828V510C697.245 510.104 696.875 510.156 696.516 510.156C695.87 510.156 695.383 509.961 695.055 509.57C694.727 509.18 694.562 508.625 694.562 507.906V502.664H693.023V501.547H694.562V499.5H696.008ZM553.102 523.758H549.289V522.578H553.102V523.758ZM559.852 519.547L559.898 520.609C560.544 519.797 561.388 519.391 562.43 519.391C564.216 519.391 565.117 520.398 565.133 522.414V528H563.688V522.406C563.682 521.797 563.542 521.346 563.266 521.055C562.995 520.763 562.57 520.617 561.992 520.617C561.523 520.617 561.112 520.742 560.758 520.992C560.404 521.242 560.128 521.57 559.93 521.977V528H558.484V519.547H559.852ZM566.93 523.695C566.93 522.867 567.091 522.122 567.414 521.461C567.742 520.799 568.195 520.289 568.773 519.93C569.357 519.57 570.021 519.391 570.766 519.391C571.917 519.391 572.846 519.789 573.555 520.586C574.268 521.383 574.625 522.443 574.625 523.766V523.867C574.625 524.69 574.466 525.43 574.148 526.086C573.836 526.737 573.385 527.245 572.797 527.609C572.214 527.974 571.542 528.156 570.781 528.156C569.635 528.156 568.706 527.758 567.992 526.961C567.284 526.164 566.93 525.109 566.93 523.797V523.695ZM568.383 523.867C568.383 524.805 568.599 525.557 569.031 526.125C569.469 526.693 570.052 526.977 570.781 526.977C571.516 526.977 572.099 526.69 572.531 526.117C572.964 525.539 573.18 524.732 573.18 523.695C573.18 522.768 572.958 522.018 572.516 521.445C572.078 520.867 571.495 520.578 570.766 520.578C570.052 520.578 569.477 520.862 569.039 521.43C568.602 521.997 568.383 522.81 568.383 523.867ZM583.797 526.977C584.312 526.977 584.763 526.82 585.148 526.508C585.534 526.195 585.747 525.805 585.789 525.336H587.156C587.13 525.82 586.964 526.281 586.656 526.719C586.349 527.156 585.938 527.505 585.422 527.766C584.911 528.026 584.37 528.156 583.797 528.156C582.646 528.156 581.729 527.773 581.047 527.008C580.37 526.237 580.031 525.185 580.031 523.852V523.609C580.031 522.786 580.182 522.055 580.484 521.414C580.786 520.773 581.219 520.276 581.781 519.922C582.349 519.568 583.018 519.391 583.789 519.391C584.737 519.391 585.523 519.674 586.148 520.242C586.779 520.81 587.115 521.547 587.156 522.453H585.789C585.747 521.906 585.539 521.458 585.164 521.109C584.794 520.755 584.336 520.578 583.789 520.578C583.055 520.578 582.484 520.844 582.078 521.375C581.677 521.901 581.477 522.664 581.477 523.664V523.938C581.477 524.911 581.677 525.661 582.078 526.188C582.479 526.714 583.052 526.977 583.797 526.977ZM588.398 523.695C588.398 522.867 588.56 522.122 588.883 521.461C589.211 520.799 589.664 520.289 590.242 519.93C590.826 519.57 591.49 519.391 592.234 519.391C593.385 519.391 594.315 519.789 595.023 520.586C595.737 521.383 596.094 522.443 596.094 523.766V523.867C596.094 524.69 595.935 525.43 595.617 526.086C595.305 526.737 594.854 527.245 594.266 527.609C593.682 527.974 593.01 528.156 592.25 528.156C591.104 528.156 590.174 527.758 589.461 526.961C588.753 526.164 588.398 525.109 588.398 523.797V523.695ZM589.852 523.867C589.852 524.805 590.068 525.557 590.5 526.125C590.938 526.693 591.521 526.977 592.25 526.977C592.984 526.977 593.568 526.69 594 526.117C594.432 525.539 594.648 524.732 594.648 523.695C594.648 522.768 594.427 522.018 593.984 521.445C593.547 520.867 592.964 520.578 592.234 520.578C591.521 520.578 590.945 520.862 590.508 521.43C590.07 521.997 589.852 522.81 589.852 523.867ZM599.273 519.547L599.32 520.609C599.966 519.797 600.81 519.391 601.852 519.391C603.638 519.391 604.539 520.398 604.555 522.414V528H603.109V522.406C603.104 521.797 602.964 521.346 602.688 521.055C602.417 520.763 601.992 520.617 601.414 520.617C600.945 520.617 600.534 520.742 600.18 520.992C599.826 521.242 599.549 521.57 599.352 521.977V528H597.906V519.547H599.273ZM608.695 517.5V519.547H610.273V520.664H608.695V525.906C608.695 526.245 608.766 526.5 608.906 526.672C609.047 526.839 609.286 526.922 609.625 526.922C609.792 526.922 610.021 526.891 610.312 526.828V528C609.932 528.104 609.562 528.156 609.203 528.156C608.557 528.156 608.07 527.961 607.742 527.57C607.414 527.18 607.25 526.625 607.25 525.906V520.664H605.711V519.547H607.25V517.5H608.695ZM616.055 520.844C615.836 520.807 615.599 520.789 615.344 520.789C614.396 520.789 613.753 521.193 613.414 522V528H611.969V519.547H613.375L613.398 520.523C613.872 519.768 614.544 519.391 615.414 519.391C615.695 519.391 615.909 519.427 616.055 519.5V520.844ZM622.297 528C622.214 527.833 622.146 527.536 622.094 527.109C621.422 527.807 620.62 528.156 619.688 528.156C618.854 528.156 618.169 527.922 617.633 527.453C617.102 526.979 616.836 526.38 616.836 525.656C616.836 524.776 617.169 524.094 617.836 523.609C618.508 523.12 619.451 522.875 620.664 522.875H622.07V522.211C622.07 521.706 621.919 521.305 621.617 521.008C621.315 520.706 620.87 520.555 620.281 520.555C619.766 520.555 619.333 520.685 618.984 520.945C618.635 521.206 618.461 521.521 618.461 521.891H617.008C617.008 521.469 617.156 521.062 617.453 520.672C617.755 520.276 618.161 519.964 618.672 519.734C619.188 519.505 619.753 519.391 620.367 519.391C621.341 519.391 622.104 519.635 622.656 520.125C623.208 520.609 623.495 521.279 623.516 522.133V526.023C623.516 526.799 623.615 527.417 623.812 527.875V528H622.297ZM619.898 526.898C620.352 526.898 620.781 526.781 621.188 526.547C621.594 526.312 621.888 526.008 622.07 525.633V523.898H620.938C619.167 523.898 618.281 524.417 618.281 525.453C618.281 525.906 618.432 526.26 618.734 526.516C619.036 526.771 619.424 526.898 619.898 526.898ZM629.172 526.977C629.688 526.977 630.138 526.82 630.523 526.508C630.909 526.195 631.122 525.805 631.164 525.336H632.531C632.505 525.82 632.339 526.281 632.031 526.719C631.724 527.156 631.312 527.505 630.797 527.766C630.286 528.026 629.745 528.156 629.172 528.156C628.021 528.156 627.104 527.773 626.422 527.008C625.745 526.237 625.406 525.185 625.406 523.852V523.609C625.406 522.786 625.557 522.055 625.859 521.414C626.161 520.773 626.594 520.276 627.156 519.922C627.724 519.568 628.393 519.391 629.164 519.391C630.112 519.391 630.898 519.674 631.523 520.242C632.154 520.81 632.49 521.547 632.531 522.453H631.164C631.122 521.906 630.914 521.458 630.539 521.109C630.169 520.755 629.711 520.578 629.164 520.578C628.43 520.578 627.859 520.844 627.453 521.375C627.052 521.901 626.852 522.664 626.852 523.664V523.938C626.852 524.911 627.052 525.661 627.453 526.188C627.854 526.714 628.427 526.977 629.172 526.977ZM636.117 517.5V519.547H637.695V520.664H636.117V525.906C636.117 526.245 636.188 526.5 636.328 526.672C636.469 526.839 636.708 526.922 637.047 526.922C637.214 526.922 637.443 526.891 637.734 526.828V528C637.354 528.104 636.984 528.156 636.625 528.156C635.979 528.156 635.492 527.961 635.164 527.57C634.836 527.18 634.672 526.625 634.672 525.906V520.664H633.133V519.547H634.672V517.5H636.117ZM644.312 525.758C644.312 525.367 644.164 525.065 643.867 524.852C643.576 524.633 643.062 524.445 642.328 524.289C641.599 524.133 641.018 523.945 640.586 523.727C640.159 523.508 639.841 523.247 639.633 522.945C639.43 522.643 639.328 522.284 639.328 521.867C639.328 521.174 639.62 520.589 640.203 520.109C640.792 519.63 641.542 519.391 642.453 519.391C643.411 519.391 644.188 519.638 644.781 520.133C645.38 520.628 645.68 521.26 645.68 522.031H644.227C644.227 521.635 644.057 521.294 643.719 521.008C643.385 520.721 642.964 520.578 642.453 520.578C641.927 520.578 641.516 520.693 641.219 520.922C640.922 521.151 640.773 521.451 640.773 521.82C640.773 522.169 640.911 522.432 641.188 522.609C641.464 522.786 641.961 522.956 642.68 523.117C643.404 523.279 643.99 523.471 644.438 523.695C644.885 523.919 645.216 524.19 645.43 524.508C645.648 524.82 645.758 525.203 645.758 525.656C645.758 526.411 645.456 527.018 644.852 527.477C644.247 527.93 643.464 528.156 642.5 528.156C641.823 528.156 641.224 528.036 640.703 527.797C640.182 527.557 639.773 527.224 639.477 526.797C639.185 526.365 639.039 525.898 639.039 525.398H640.484C640.51 525.883 640.703 526.268 641.062 526.555C641.427 526.836 641.906 526.977 642.5 526.977C643.047 526.977 643.484 526.867 643.812 526.648C644.146 526.424 644.312 526.128 644.312 525.758Z" fill="black"/>
<path d="M748.102 505.758H744.289V504.578H748.102V505.758ZM755.438 503.609H756.523C757.206 503.599 757.742 503.419 758.133 503.07C758.523 502.721 758.719 502.25 758.719 501.656C758.719 500.323 758.055 499.656 756.727 499.656C756.102 499.656 755.602 499.836 755.227 500.195C754.857 500.549 754.672 501.021 754.672 501.609H753.227C753.227 500.708 753.555 499.961 754.211 499.367C754.872 498.768 755.711 498.469 756.727 498.469C757.799 498.469 758.641 498.753 759.25 499.32C759.859 499.888 760.164 500.677 760.164 501.688C760.164 502.182 760.003 502.661 759.68 503.125C759.362 503.589 758.927 503.935 758.375 504.164C759 504.362 759.482 504.69 759.82 505.148C760.164 505.607 760.336 506.167 760.336 506.828C760.336 507.849 760.003 508.659 759.336 509.258C758.669 509.857 757.802 510.156 756.734 510.156C755.667 510.156 754.797 509.867 754.125 509.289C753.458 508.711 753.125 507.948 753.125 507H754.578C754.578 507.599 754.773 508.078 755.164 508.438C755.555 508.797 756.078 508.977 756.734 508.977C757.432 508.977 757.966 508.794 758.336 508.43C758.706 508.065 758.891 507.542 758.891 506.859C758.891 506.198 758.688 505.69 758.281 505.336C757.875 504.982 757.289 504.799 756.523 504.789H755.438V503.609ZM769.453 505.148C769.453 506.841 769.164 508.099 768.586 508.922C768.008 509.745 767.104 510.156 765.875 510.156C764.661 510.156 763.763 509.755 763.18 508.953C762.596 508.146 762.294 506.943 762.273 505.344V503.414C762.273 501.742 762.562 500.5 763.141 499.688C763.719 498.875 764.625 498.469 765.859 498.469C767.083 498.469 767.984 498.862 768.562 499.648C769.141 500.43 769.438 501.638 769.453 503.273V505.148ZM768.008 503.172C768.008 501.948 767.836 501.057 767.492 500.5C767.148 499.938 766.604 499.656 765.859 499.656C765.12 499.656 764.581 499.935 764.242 500.492C763.904 501.049 763.729 501.906 763.719 503.062V505.375C763.719 506.604 763.896 507.513 764.25 508.102C764.609 508.685 765.151 508.977 765.875 508.977C766.589 508.977 767.117 508.701 767.461 508.148C767.81 507.596 767.992 506.727 768.008 505.539V503.172ZM775.07 505.703C775.07 504.406 775.378 503.365 775.992 502.578C776.607 501.786 777.411 501.391 778.406 501.391C779.396 501.391 780.18 501.729 780.758 502.406V498H782.203V510H780.875L780.805 509.094C780.227 509.802 779.422 510.156 778.391 510.156C777.411 510.156 776.612 509.755 775.992 508.953C775.378 508.151 775.07 507.104 775.07 505.812V505.703ZM776.516 505.867C776.516 506.826 776.714 507.576 777.109 508.117C777.505 508.659 778.052 508.93 778.75 508.93C779.667 508.93 780.336 508.518 780.758 507.695V503.812C780.326 503.016 779.661 502.617 778.766 502.617C778.057 502.617 777.505 502.891 777.109 503.438C776.714 503.984 776.516 504.794 776.516 505.867ZM789.672 510C789.589 509.833 789.521 509.536 789.469 509.109C788.797 509.807 787.995 510.156 787.062 510.156C786.229 510.156 785.544 509.922 785.008 509.453C784.477 508.979 784.211 508.38 784.211 507.656C784.211 506.776 784.544 506.094 785.211 505.609C785.883 505.12 786.826 504.875 788.039 504.875H789.445V504.211C789.445 503.706 789.294 503.305 788.992 503.008C788.69 502.706 788.245 502.555 787.656 502.555C787.141 502.555 786.708 502.685 786.359 502.945C786.01 503.206 785.836 503.521 785.836 503.891H784.383C784.383 503.469 784.531 503.062 784.828 502.672C785.13 502.276 785.536 501.964 786.047 501.734C786.562 501.505 787.128 501.391 787.742 501.391C788.716 501.391 789.479 501.635 790.031 502.125C790.583 502.609 790.87 503.279 790.891 504.133V508.023C790.891 508.799 790.99 509.417 791.188 509.875V510H789.672ZM787.273 508.898C787.727 508.898 788.156 508.781 788.562 508.547C788.969 508.312 789.263 508.008 789.445 507.633V505.898H788.312C786.542 505.898 785.656 506.417 785.656 507.453C785.656 507.906 785.807 508.26 786.109 508.516C786.411 508.771 786.799 508.898 787.273 508.898ZM795.797 507.883L797.766 501.547H799.312L795.914 511.305C795.388 512.711 794.552 513.414 793.406 513.414L793.133 513.391L792.594 513.289V512.117L792.984 512.148C793.474 512.148 793.854 512.049 794.125 511.852C794.401 511.654 794.628 511.292 794.805 510.766L795.125 509.906L792.109 501.547H793.688L795.797 507.883ZM805.938 501.547L805.977 502.484C806.596 501.755 807.432 501.391 808.484 501.391C809.667 501.391 810.471 501.844 810.898 502.75C811.18 502.344 811.544 502.016 811.992 501.766C812.445 501.516 812.979 501.391 813.594 501.391C815.448 501.391 816.391 502.372 816.422 504.336V510H814.977V504.422C814.977 503.818 814.839 503.367 814.562 503.07C814.286 502.768 813.823 502.617 813.172 502.617C812.635 502.617 812.19 502.779 811.836 503.102C811.482 503.419 811.276 503.849 811.219 504.391V510H809.766V504.461C809.766 503.232 809.164 502.617 807.961 502.617C807.013 502.617 806.365 503.021 806.016 503.828V510H804.57V501.547H805.938ZM818.227 505.695C818.227 504.867 818.388 504.122 818.711 503.461C819.039 502.799 819.492 502.289 820.07 501.93C820.654 501.57 821.318 501.391 822.062 501.391C823.214 501.391 824.143 501.789 824.852 502.586C825.565 503.383 825.922 504.443 825.922 505.766V505.867C825.922 506.69 825.763 507.43 825.445 508.086C825.133 508.737 824.682 509.245 824.094 509.609C823.51 509.974 822.839 510.156 822.078 510.156C820.932 510.156 820.003 509.758 819.289 508.961C818.581 508.164 818.227 507.109 818.227 505.797V505.695ZM819.68 505.867C819.68 506.805 819.896 507.557 820.328 508.125C820.766 508.693 821.349 508.977 822.078 508.977C822.812 508.977 823.396 508.69 823.828 508.117C824.26 507.539 824.477 506.732 824.477 505.695C824.477 504.768 824.255 504.018 823.812 503.445C823.375 502.867 822.792 502.578 822.062 502.578C821.349 502.578 820.773 502.862 820.336 503.43C819.898 503.997 819.68 504.81 819.68 505.867ZM829.102 501.547L829.148 502.609C829.794 501.797 830.638 501.391 831.68 501.391C833.466 501.391 834.367 502.398 834.383 504.414V510H832.938V504.406C832.932 503.797 832.792 503.346 832.516 503.055C832.245 502.763 831.82 502.617 831.242 502.617C830.773 502.617 830.362 502.742 830.008 502.992C829.654 503.242 829.378 503.57 829.18 503.977V510H827.734V501.547H829.102ZM840.07 510.156C838.924 510.156 837.992 509.781 837.273 509.031C836.555 508.276 836.195 507.268 836.195 506.008V505.742C836.195 504.904 836.354 504.156 836.672 503.5C836.995 502.839 837.443 502.323 838.016 501.953C838.594 501.578 839.219 501.391 839.891 501.391C840.99 501.391 841.844 501.753 842.453 502.477C843.062 503.201 843.367 504.237 843.367 505.586V506.188H837.641C837.661 507.021 837.904 507.695 838.367 508.211C838.836 508.721 839.43 508.977 840.148 508.977C840.659 508.977 841.091 508.872 841.445 508.664C841.799 508.456 842.109 508.18 842.375 507.836L843.258 508.523C842.549 509.612 841.487 510.156 840.07 510.156ZM839.891 502.578C839.307 502.578 838.818 502.792 838.422 503.219C838.026 503.641 837.781 504.234 837.688 505H841.922V504.891C841.88 504.156 841.682 503.589 841.328 503.188C840.974 502.781 840.495 502.578 839.891 502.578ZM847.703 507.883L849.672 501.547H851.219L847.82 511.305C847.294 512.711 846.458 513.414 845.312 513.414L845.039 513.391L844.5 513.289V512.117L844.891 512.148C845.38 512.148 845.76 512.049 846.031 511.852C846.307 511.654 846.534 511.292 846.711 510.766L847.031 509.906L844.016 501.547H845.594L847.703 507.883ZM863.641 505.867C863.641 507.159 863.344 508.198 862.75 508.984C862.156 509.766 861.359 510.156 860.359 510.156C859.292 510.156 858.466 509.779 857.883 509.023L857.812 510H856.484V498H857.93V502.477C858.513 501.753 859.318 501.391 860.344 501.391C861.37 501.391 862.174 501.779 862.758 502.555C863.346 503.331 863.641 504.393 863.641 505.742V505.867ZM862.195 505.703C862.195 504.719 862.005 503.958 861.625 503.422C861.245 502.885 860.698 502.617 859.984 502.617C859.031 502.617 858.346 503.06 857.93 503.945V507.602C858.372 508.487 859.062 508.93 860 508.93C860.693 508.93 861.232 508.661 861.617 508.125C862.003 507.589 862.195 506.781 862.195 505.703ZM870.688 510C870.604 509.833 870.536 509.536 870.484 509.109C869.812 509.807 869.01 510.156 868.078 510.156C867.245 510.156 866.56 509.922 866.023 509.453C865.492 508.979 865.227 508.38 865.227 507.656C865.227 506.776 865.56 506.094 866.227 505.609C866.898 505.12 867.841 504.875 869.055 504.875H870.461V504.211C870.461 503.706 870.31 503.305 870.008 503.008C869.706 502.706 869.26 502.555 868.672 502.555C868.156 502.555 867.724 502.685 867.375 502.945C867.026 503.206 866.852 503.521 866.852 503.891H865.398C865.398 503.469 865.547 503.062 865.844 502.672C866.146 502.276 866.552 501.964 867.062 501.734C867.578 501.505 868.143 501.391 868.758 501.391C869.732 501.391 870.495 501.635 871.047 502.125C871.599 502.609 871.885 503.279 871.906 504.133V508.023C871.906 508.799 872.005 509.417 872.203 509.875V510H870.688ZM868.289 508.898C868.742 508.898 869.172 508.781 869.578 508.547C869.984 508.312 870.279 508.008 870.461 507.633V505.898H869.328C867.557 505.898 866.672 506.417 866.672 507.453C866.672 507.906 866.823 508.26 867.125 508.516C867.427 508.771 867.815 508.898 868.289 508.898ZM877.562 508.977C878.078 508.977 878.529 508.82 878.914 508.508C879.299 508.195 879.513 507.805 879.555 507.336H880.922C880.896 507.82 880.729 508.281 880.422 508.719C880.115 509.156 879.703 509.505 879.188 509.766C878.677 510.026 878.135 510.156 877.562 510.156C876.411 510.156 875.495 509.773 874.812 509.008C874.135 508.237 873.797 507.185 873.797 505.852V505.609C873.797 504.786 873.948 504.055 874.25 503.414C874.552 502.773 874.984 502.276 875.547 501.922C876.115 501.568 876.784 501.391 877.555 501.391C878.503 501.391 879.289 501.674 879.914 502.242C880.544 502.81 880.88 503.547 880.922 504.453H879.555C879.513 503.906 879.305 503.458 878.93 503.109C878.56 502.755 878.102 502.578 877.555 502.578C876.82 502.578 876.25 502.844 875.844 503.375C875.443 503.901 875.242 504.664 875.242 505.664V505.938C875.242 506.911 875.443 507.661 875.844 508.188C876.245 508.714 876.818 508.977 877.562 508.977ZM884.906 506.086L884 507.031V510H882.555V498H884V505.258L884.773 504.328L887.406 501.547H889.164L885.875 505.078L889.547 510H887.852L884.906 506.086ZM744.75 523.703C744.75 522.385 745.055 521.339 745.664 520.562C746.273 519.781 747.081 519.391 748.086 519.391C749.117 519.391 749.922 519.755 750.5 520.484L750.57 519.547H751.891V527.797C751.891 528.891 751.565 529.753 750.914 530.383C750.268 531.013 749.398 531.328 748.305 531.328C747.695 531.328 747.099 531.198 746.516 530.938C745.932 530.677 745.487 530.32 745.18 529.867L745.93 529C746.549 529.766 747.307 530.148 748.203 530.148C748.906 530.148 749.453 529.951 749.844 529.555C750.24 529.159 750.438 528.602 750.438 527.883V527.156C749.859 527.823 749.07 528.156 748.07 528.156C747.081 528.156 746.279 527.758 745.664 526.961C745.055 526.164 744.75 525.078 744.75 523.703ZM746.203 523.867C746.203 524.82 746.398 525.57 746.789 526.117C747.18 526.659 747.727 526.93 748.43 526.93C749.341 526.93 750.01 526.516 750.438 525.688V521.828C749.995 521.021 749.331 520.617 748.445 520.617C747.742 520.617 747.193 520.891 746.797 521.438C746.401 521.984 746.203 522.794 746.203 523.867ZM759.297 527.164C758.734 527.826 757.909 528.156 756.82 528.156C755.919 528.156 755.232 527.896 754.758 527.375C754.289 526.849 754.052 526.073 754.047 525.047V519.547H755.492V525.008C755.492 526.289 756.013 526.93 757.055 526.93C758.159 526.93 758.893 526.518 759.258 525.695V519.547H760.703V528H759.328L759.297 527.164ZM768.125 528C768.042 527.833 767.974 527.536 767.922 527.109C767.25 527.807 766.448 528.156 765.516 528.156C764.682 528.156 763.997 527.922 763.461 527.453C762.93 526.979 762.664 526.38 762.664 525.656C762.664 524.776 762.997 524.094 763.664 523.609C764.336 523.12 765.279 522.875 766.492 522.875H767.898V522.211C767.898 521.706 767.747 521.305 767.445 521.008C767.143 520.706 766.698 520.555 766.109 520.555C765.594 520.555 765.161 520.685 764.812 520.945C764.464 521.206 764.289 521.521 764.289 521.891H762.836C762.836 521.469 762.984 521.062 763.281 520.672C763.583 520.276 763.99 519.964 764.5 519.734C765.016 519.505 765.581 519.391 766.195 519.391C767.169 519.391 767.932 519.635 768.484 520.125C769.036 520.609 769.323 521.279 769.344 522.133V526.023C769.344 526.799 769.443 527.417 769.641 527.875V528H768.125ZM765.727 526.898C766.18 526.898 766.609 526.781 767.016 526.547C767.422 526.312 767.716 526.008 767.898 525.633V523.898H766.766C764.995 523.898 764.109 524.417 764.109 525.453C764.109 525.906 764.26 526.26 764.562 526.516C764.865 526.771 765.253 526.898 765.727 526.898ZM775.695 520.844C775.477 520.807 775.24 520.789 774.984 520.789C774.036 520.789 773.393 521.193 773.055 522V528H771.609V519.547H773.016L773.039 520.523C773.513 519.768 774.185 519.391 775.055 519.391C775.336 519.391 775.549 519.427 775.695 519.5V520.844ZM781.938 528C781.854 527.833 781.786 527.536 781.734 527.109C781.062 527.807 780.26 528.156 779.328 528.156C778.495 528.156 777.81 527.922 777.273 527.453C776.742 526.979 776.477 526.38 776.477 525.656C776.477 524.776 776.81 524.094 777.477 523.609C778.148 523.12 779.091 522.875 780.305 522.875H781.711V522.211C781.711 521.706 781.56 521.305 781.258 521.008C780.956 520.706 780.51 520.555 779.922 520.555C779.406 520.555 778.974 520.685 778.625 520.945C778.276 521.206 778.102 521.521 778.102 521.891H776.648C776.648 521.469 776.797 521.062 777.094 520.672C777.396 520.276 777.802 519.964 778.312 519.734C778.828 519.505 779.393 519.391 780.008 519.391C780.982 519.391 781.745 519.635 782.297 520.125C782.849 520.609 783.135 521.279 783.156 522.133V526.023C783.156 526.799 783.255 527.417 783.453 527.875V528H781.938ZM779.539 526.898C779.992 526.898 780.422 526.781 780.828 526.547C781.234 526.312 781.529 526.008 781.711 525.633V523.898H780.578C778.807 523.898 777.922 524.417 777.922 525.453C777.922 525.906 778.073 526.26 778.375 526.516C778.677 526.771 779.065 526.898 779.539 526.898ZM786.789 519.547L786.836 520.609C787.482 519.797 788.326 519.391 789.367 519.391C791.154 519.391 792.055 520.398 792.07 522.414V528H790.625V522.406C790.62 521.797 790.479 521.346 790.203 521.055C789.932 520.763 789.508 520.617 788.93 520.617C788.461 520.617 788.049 520.742 787.695 520.992C787.341 521.242 787.065 521.57 786.867 521.977V528H785.422V519.547H786.789ZM796.211 517.5V519.547H797.789V520.664H796.211V525.906C796.211 526.245 796.281 526.5 796.422 526.672C796.562 526.839 796.802 526.922 797.141 526.922C797.307 526.922 797.536 526.891 797.828 526.828V528C797.448 528.104 797.078 528.156 796.719 528.156C796.073 528.156 795.586 527.961 795.258 527.57C794.93 527.18 794.766 526.625 794.766 525.906V520.664H793.227V519.547H794.766V517.5H796.211ZM802.992 528.156C801.846 528.156 800.914 527.781 800.195 527.031C799.477 526.276 799.117 525.268 799.117 524.008V523.742C799.117 522.904 799.276 522.156 799.594 521.5C799.917 520.839 800.365 520.323 800.938 519.953C801.516 519.578 802.141 519.391 802.812 519.391C803.911 519.391 804.766 519.753 805.375 520.477C805.984 521.201 806.289 522.237 806.289 523.586V524.188H800.562C800.583 525.021 800.826 525.695 801.289 526.211C801.758 526.721 802.352 526.977 803.07 526.977C803.581 526.977 804.013 526.872 804.367 526.664C804.721 526.456 805.031 526.18 805.297 525.836L806.18 526.523C805.471 527.612 804.409 528.156 802.992 528.156ZM802.812 520.578C802.229 520.578 801.74 520.792 801.344 521.219C800.948 521.641 800.703 522.234 800.609 523H804.844V522.891C804.802 522.156 804.604 521.589 804.25 521.188C803.896 520.781 803.417 520.578 802.812 520.578ZM811.477 528.156C810.331 528.156 809.398 527.781 808.68 527.031C807.961 526.276 807.602 525.268 807.602 524.008V523.742C807.602 522.904 807.76 522.156 808.078 521.5C808.401 520.839 808.849 520.323 809.422 519.953C810 519.578 810.625 519.391 811.297 519.391C812.396 519.391 813.25 519.753 813.859 520.477C814.469 521.201 814.773 522.237 814.773 523.586V524.188H809.047C809.068 525.021 809.31 525.695 809.773 526.211C810.242 526.721 810.836 526.977 811.555 526.977C812.065 526.977 812.497 526.872 812.852 526.664C813.206 526.456 813.516 526.18 813.781 525.836L814.664 526.523C813.956 527.612 812.893 528.156 811.477 528.156ZM811.297 520.578C810.714 520.578 810.224 520.792 809.828 521.219C809.432 521.641 809.188 522.234 809.094 523H813.328V522.891C813.286 522.156 813.089 521.589 812.734 521.188C812.38 520.781 811.901 520.578 811.297 520.578Z" fill="black"/>
<path d="M940.06 28.0184L938.042 26L929.53 34.5116L921.018 26L919 28.0184L927.512 36.53L919 45.0416L921.018 47.06L929.53 38.5484L938.042 47.06L940.06 45.0416L931.548 36.53L940.06 28.0184Z" fill="black"/>
<rect x="24.5" y="574.5" width="82" height="34" fill="#D1D1D1" stroke="black"/>
<path d="M58.8633 588.645C58.8633 589.141 58.7311 589.583 58.4668 589.971C58.207 590.358 57.8538 590.661 57.4072 590.88C57.9268 591.103 58.3369 591.429 58.6377 591.857C58.943 592.286 59.0957 592.771 59.0957 593.313C59.0957 594.175 58.804 594.861 58.2207 595.371C57.6419 595.882 56.8786 596.137 55.9307 596.137C54.9736 596.137 54.2057 595.882 53.627 595.371C53.0527 594.856 52.7656 594.17 52.7656 593.313C52.7656 592.776 52.9115 592.29 53.2031 591.857C53.4993 591.424 53.9072 591.096 54.4268 590.873C53.9847 590.654 53.6361 590.351 53.3809 589.964C53.1257 589.576 52.998 589.137 52.998 588.645C52.998 587.806 53.2669 587.141 53.8047 586.648C54.3424 586.156 55.0511 585.91 55.9307 585.91C56.8057 585.91 57.512 586.156 58.0498 586.648C58.5921 587.141 58.8633 587.806 58.8633 588.645ZM57.8311 593.286C57.8311 592.73 57.6533 592.277 57.2979 591.926C56.9469 591.575 56.4867 591.399 55.917 591.399C55.3473 591.399 54.8893 591.573 54.543 591.919C54.2012 592.265 54.0303 592.721 54.0303 593.286C54.0303 593.851 54.1966 594.296 54.5293 594.619C54.8665 594.943 55.3337 595.104 55.9307 595.104C56.5231 595.104 56.988 594.943 57.3252 594.619C57.6624 594.291 57.8311 593.847 57.8311 593.286ZM55.9307 586.949C55.4339 586.949 55.0306 587.104 54.7207 587.414C54.4154 587.719 54.2627 588.136 54.2627 588.665C54.2627 589.171 54.4131 589.581 54.7139 589.896C55.0192 590.205 55.4248 590.36 55.9307 590.36C56.4365 590.36 56.8398 590.205 57.1406 589.896C57.446 589.581 57.5986 589.171 57.5986 588.665C57.5986 588.159 57.4414 587.747 57.127 587.428C56.8125 587.109 56.4137 586.949 55.9307 586.949ZM68.3652 594.694C68.028 595.177 67.5563 595.54 66.9502 595.781C66.3486 596.018 65.6468 596.137 64.8447 596.137C64.0335 596.137 63.3135 595.948 62.6846 595.569C62.0557 595.187 61.568 594.644 61.2217 593.942C60.8799 593.241 60.7044 592.427 60.6953 591.502V590.634C60.6953 589.134 61.0439 587.972 61.7412 587.147C62.443 586.323 63.4274 585.91 64.6943 585.91C65.7334 585.91 66.5697 586.177 67.2031 586.71C67.8366 587.239 68.224 587.991 68.3652 588.966H67.0527C66.8066 587.649 66.0228 586.99 64.7012 586.99C63.8216 586.99 63.154 587.3 62.6982 587.92C62.2471 588.535 62.0192 589.428 62.0146 590.6V591.413C62.0146 592.53 62.2699 593.418 62.7803 594.079C63.2907 594.735 63.9811 595.063 64.8516 595.063C65.3438 595.063 65.7744 595.009 66.1436 594.899C66.5127 594.79 66.818 594.605 67.0596 594.346V592.11H64.7559V591.044H68.3652V594.694ZM76.623 592.384C76.623 593.514 76.3633 594.423 75.8438 595.111C75.3242 595.795 74.627 596.137 73.752 596.137C72.8177 596.137 72.0954 595.806 71.585 595.146L71.5234 596H70.3613V585.5H71.626V589.417C72.1364 588.784 72.8405 588.467 73.7383 588.467C74.6361 588.467 75.3402 588.806 75.8506 589.485C76.3656 590.164 76.623 591.094 76.623 592.274V592.384ZM75.3584 592.24C75.3584 591.379 75.1921 590.714 74.8594 590.244C74.5267 589.775 74.0482 589.54 73.4238 589.54C72.5898 589.54 71.9906 589.927 71.626 590.702V593.901C72.0133 594.676 72.6172 595.063 73.4375 595.063C74.0436 595.063 74.5153 594.829 74.8525 594.359C75.1898 593.89 75.3584 593.184 75.3584 592.24Z" fill="black"/>
<path d="M146.477 592.842C146.354 593.895 145.964 594.708 145.308 595.282C144.656 595.852 143.788 596.137 142.703 596.137C141.527 596.137 140.584 595.715 139.873 594.872C139.167 594.029 138.813 592.901 138.813 591.488V590.531C138.813 589.606 138.978 588.793 139.306 588.091C139.638 587.389 140.108 586.851 140.714 586.478C141.32 586.099 142.022 585.91 142.819 585.91C143.877 585.91 144.724 586.206 145.362 586.799C146 587.387 146.372 588.202 146.477 589.246H145.157C145.043 588.453 144.795 587.879 144.412 587.523C144.034 587.168 143.503 586.99 142.819 586.99C141.981 586.99 141.322 587.3 140.844 587.92C140.37 588.54 140.133 589.422 140.133 590.565V591.529C140.133 592.609 140.358 593.468 140.81 594.106C141.261 594.744 141.892 595.063 142.703 595.063C143.432 595.063 143.991 594.899 144.378 594.571C144.77 594.239 145.03 593.662 145.157 592.842H146.477ZM147.741 592.233C147.741 591.509 147.882 590.857 148.165 590.278C148.452 589.7 148.849 589.253 149.354 588.938C149.865 588.624 150.446 588.467 151.098 588.467C152.105 588.467 152.918 588.815 153.538 589.513C154.162 590.21 154.475 591.137 154.475 592.295V592.384C154.475 593.104 154.336 593.751 154.058 594.325C153.784 594.895 153.39 595.339 152.875 595.658C152.365 595.977 151.777 596.137 151.111 596.137C150.109 596.137 149.295 595.788 148.671 595.091C148.051 594.394 147.741 593.471 147.741 592.322V592.233ZM149.013 592.384C149.013 593.204 149.202 593.863 149.58 594.359C149.963 594.856 150.473 595.104 151.111 595.104C151.754 595.104 152.264 594.854 152.643 594.353C153.021 593.847 153.21 593.14 153.21 592.233C153.21 591.422 153.016 590.766 152.629 590.265C152.246 589.759 151.736 589.506 151.098 589.506C150.473 589.506 149.97 589.754 149.587 590.251C149.204 590.748 149.013 591.459 149.013 592.384ZM157.435 596H156.17V585.5H157.435V596ZM159.13 592.233C159.13 591.509 159.271 590.857 159.554 590.278C159.841 589.7 160.237 589.253 160.743 588.938C161.254 588.624 161.835 588.467 162.486 588.467C163.493 588.467 164.307 588.815 164.927 589.513C165.551 590.21 165.863 591.137 165.863 592.295V592.384C165.863 593.104 165.724 593.751 165.446 594.325C165.173 594.895 164.779 595.339 164.264 595.658C163.753 595.977 163.165 596.137 162.5 596.137C161.497 596.137 160.684 595.788 160.06 595.091C159.44 594.394 159.13 593.471 159.13 592.322V592.233ZM160.401 592.384C160.401 593.204 160.59 593.863 160.969 594.359C161.352 594.856 161.862 595.104 162.5 595.104C163.143 595.104 163.653 594.854 164.031 594.353C164.41 593.847 164.599 593.14 164.599 592.233C164.599 591.422 164.405 590.766 164.018 590.265C163.635 589.759 163.124 589.506 162.486 589.506C161.862 589.506 161.358 589.754 160.976 590.251C160.593 590.748 160.401 591.459 160.401 592.384ZM171.024 589.738C170.833 589.706 170.626 589.69 170.402 589.69C169.573 589.69 169.01 590.044 168.714 590.75V596H167.449V588.604H168.68L168.7 589.458C169.115 588.797 169.703 588.467 170.464 588.467C170.71 588.467 170.897 588.499 171.024 588.562V589.738ZM176.5 594.038C176.5 593.696 176.37 593.432 176.11 593.245C175.855 593.054 175.406 592.89 174.764 592.753C174.126 592.616 173.618 592.452 173.239 592.261C172.866 592.069 172.588 591.841 172.405 591.577C172.228 591.313 172.139 590.998 172.139 590.634C172.139 590.028 172.394 589.515 172.904 589.096C173.419 588.676 174.076 588.467 174.873 588.467C175.712 588.467 176.391 588.683 176.91 589.116C177.434 589.549 177.696 590.103 177.696 590.777H176.425C176.425 590.431 176.277 590.132 175.98 589.882C175.689 589.631 175.32 589.506 174.873 589.506C174.413 589.506 174.053 589.606 173.793 589.807C173.533 590.007 173.403 590.269 173.403 590.593C173.403 590.898 173.524 591.128 173.766 591.283C174.007 591.438 174.442 591.586 175.071 591.728C175.705 591.869 176.217 592.037 176.609 592.233C177.001 592.429 177.291 592.666 177.478 592.944C177.669 593.218 177.765 593.553 177.765 593.949C177.765 594.61 177.5 595.141 176.972 595.542C176.443 595.938 175.757 596.137 174.914 596.137C174.322 596.137 173.798 596.032 173.342 595.822C172.886 595.613 172.528 595.321 172.269 594.947C172.013 594.569 171.886 594.161 171.886 593.724H173.15C173.173 594.147 173.342 594.485 173.656 594.735C173.975 594.981 174.395 595.104 174.914 595.104C175.393 595.104 175.775 595.009 176.062 594.817C176.354 594.621 176.5 594.362 176.5 594.038ZM179.371 595.337C179.371 595.118 179.435 594.936 179.562 594.79C179.695 594.644 179.891 594.571 180.15 594.571C180.41 594.571 180.606 594.644 180.738 594.79C180.875 594.936 180.943 595.118 180.943 595.337C180.943 595.547 180.875 595.722 180.738 595.863C180.606 596.005 180.41 596.075 180.15 596.075C179.891 596.075 179.695 596.005 179.562 595.863C179.435 595.722 179.371 595.547 179.371 595.337ZM179.378 589.301C179.378 589.082 179.442 588.9 179.569 588.754C179.701 588.608 179.897 588.535 180.157 588.535C180.417 588.535 180.613 588.608 180.745 588.754C180.882 588.9 180.95 589.082 180.95 589.301C180.95 589.51 180.882 589.686 180.745 589.827C180.613 589.968 180.417 590.039 180.157 590.039C179.897 590.039 179.701 589.968 179.569 589.827C179.442 589.686 179.378 589.51 179.378 589.301ZM186.474 596V586.047H189.728C190.808 586.047 191.619 586.27 192.161 586.717C192.708 587.163 192.981 587.824 192.981 588.699C192.981 589.164 192.849 589.576 192.585 589.937C192.321 590.292 191.961 590.568 191.505 590.764C192.043 590.914 192.466 591.201 192.776 591.625C193.091 592.044 193.248 592.546 193.248 593.129C193.248 594.022 192.959 594.724 192.38 595.234C191.801 595.745 190.983 596 189.926 596H186.474ZM187.786 591.345V594.927H189.953C190.564 594.927 191.045 594.77 191.396 594.455C191.751 594.136 191.929 593.699 191.929 593.143C191.929 591.944 191.277 591.345 189.974 591.345H187.786ZM187.786 590.292H189.769C190.343 590.292 190.801 590.148 191.143 589.861C191.489 589.574 191.662 589.185 191.662 588.692C191.662 588.146 191.503 587.749 191.184 587.503C190.865 587.252 190.379 587.127 189.728 587.127H187.786V590.292ZM196.372 596H195.107V585.5H196.372V596ZM202.969 596C202.896 595.854 202.837 595.594 202.791 595.221C202.203 595.831 201.501 596.137 200.686 596.137C199.956 596.137 199.357 595.932 198.888 595.521C198.423 595.107 198.19 594.583 198.19 593.949C198.19 593.179 198.482 592.582 199.065 592.158C199.653 591.73 200.478 591.516 201.54 591.516H202.771V590.935C202.771 590.493 202.638 590.142 202.374 589.882C202.11 589.618 201.72 589.485 201.205 589.485C200.754 589.485 200.376 589.599 200.07 589.827C199.765 590.055 199.612 590.331 199.612 590.654H198.341C198.341 590.285 198.471 589.93 198.73 589.588C198.995 589.242 199.35 588.968 199.797 588.768C200.248 588.567 200.743 588.467 201.28 588.467C202.132 588.467 202.8 588.681 203.283 589.109C203.766 589.533 204.017 590.119 204.035 590.866V594.271C204.035 594.95 204.122 595.49 204.295 595.891V596H202.969ZM200.87 595.036C201.267 595.036 201.643 594.934 201.998 594.729C202.354 594.523 202.611 594.257 202.771 593.929V592.411H201.779C200.23 592.411 199.455 592.865 199.455 593.771C199.455 594.168 199.587 594.478 199.852 594.701C200.116 594.924 200.455 595.036 200.87 595.036ZM208.984 595.104C209.436 595.104 209.83 594.968 210.167 594.694C210.504 594.421 210.691 594.079 210.728 593.669H211.924C211.901 594.093 211.755 594.496 211.486 594.879C211.217 595.262 210.857 595.567 210.406 595.795C209.96 596.023 209.486 596.137 208.984 596.137C207.977 596.137 207.175 595.802 206.578 595.132C205.986 594.457 205.689 593.537 205.689 592.37V592.158C205.689 591.438 205.822 590.798 206.086 590.237C206.35 589.677 206.729 589.242 207.221 588.932C207.717 588.622 208.303 588.467 208.978 588.467C209.807 588.467 210.495 588.715 211.042 589.212C211.593 589.709 211.887 590.354 211.924 591.146H210.728C210.691 590.668 210.509 590.276 210.181 589.971C209.857 589.661 209.456 589.506 208.978 589.506C208.335 589.506 207.836 589.738 207.48 590.203C207.13 590.663 206.954 591.331 206.954 592.206V592.445C206.954 593.298 207.13 593.954 207.48 594.414C207.831 594.874 208.333 595.104 208.984 595.104ZM215.41 592.575L214.617 593.402V596H213.353V585.5H214.617V591.851L215.294 591.037L217.598 588.604H219.136L216.258 591.693L219.471 596H217.987L215.41 592.575Z" fill="black"/>
<path d="M430.781 591.399H426.468V594.927H431.479V596H425.155V586.047H431.41V587.127H426.468V590.326H430.781V591.399ZM433.112 596V586.047H435.922C436.788 586.047 437.553 586.238 438.219 586.621C438.884 587.004 439.397 587.549 439.757 588.255C440.121 588.961 440.306 589.772 440.311 590.688V591.324C440.311 592.263 440.128 593.086 439.764 593.792C439.404 594.498 438.886 595.041 438.212 595.419C437.542 595.797 436.76 595.991 435.867 596H433.112ZM434.425 587.127V594.927H435.806C436.817 594.927 437.604 594.612 438.164 593.983C438.729 593.354 439.012 592.459 439.012 591.297V590.716C439.012 589.586 438.745 588.708 438.212 588.084C437.683 587.455 436.931 587.136 435.956 587.127H434.425ZM443.708 596H442.396V586.047H443.708V596ZM452.786 587.127H449.587V596H448.281V587.127H445.089V586.047H452.786V587.127Z" fill="black"/>
<path d="M424 597.355H453.107V598.039H424V597.355Z" fill="black"/>
</g>
<defs>
<clipPath id="clip0">
<rect width="960" height="640" fill="white"/>
</clipPath>
</defs>
</svg>
