<svg width="509" height="509" viewBox="0 0 509 509" fill="none" xmlns="http://www.w3.org/2000/svg">
<path fill-rule="evenodd" clip-rule="evenodd" d="M254.007 508.01C113.721 508.01 0 394.285 0 254.003C0 113.722 113.721 0 254.007 0C394.287 0 508.005 113.722 508.005 254.003C508.005 394.285 394.287 508.01 254.007 508.01ZM74.5776 254.005C74.5776 154.91 154.91 74.5776 254.005 74.5776C353.099 74.5776 433.431 154.91 433.431 254.005C433.431 353.099 353.099 433.431 254.005 433.431H76.539L115.102 367.567C89.7822 336.634 74.5776 297.099 74.5776 254.005ZM284.326 295.516C284.326 278.771 297.902 265.194 314.65 265.194C331.395 265.194 344.973 278.771 344.973 295.516C344.973 312.264 331.395 325.84 314.65 325.84C297.902 325.84 284.326 312.264 284.326 295.516ZM284.252 192.605C283.368 205.561 273.957 216.591 261.382 219.848C261.276 219.876 261.167 219.904 261.059 219.93C249.108 222.885 239.117 231.068 232.965 241.728L229.304 248.07C222.052 260.629 220.277 275.373 223.1 289.596C223.719 292.701 223.86 295.977 223.445 299.348C221.794 312.764 211.101 323.669 197.712 325.533C178.319 328.231 161.821 312.57 163.105 293.424C163.974 280.463 173.377 269.425 185.946 266.149C185.99 266.138 186.034 266.127 186.077 266.116C186.142 266.1 186.207 266.083 186.272 266.066C198.251 263.086 208.264 254.883 214.436 244.192L218.057 237.918C225.307 225.361 227.082 210.613 224.262 196.389C223.643 193.287 223.503 190.013 223.916 186.644C225.566 173.224 236.264 162.314 249.656 160.453C269.06 157.759 285.56 173.444 284.252 192.605Z" fill="white"/>
</svg>
