<svg width="273" height="273" viewBox="0 0 273 273" fill="none" xmlns="http://www.w3.org/2000/svg">
<path fill-rule="evenodd" clip-rule="evenodd" d="M0.991455 136.004C0.991455 211.117 61.8825 272.01 136.998 272.01C212.109 272.01 272.999 211.117 272.999 136.004C272.999 60.8913 212.109 0 136.998 0C61.8825 0 0.991455 60.8913 0.991455 136.004" fill="black" fill-opacity="0.87"/>
<mask id="mask0" mask-type="alpha" maskUnits="userSpaceOnUse" x="0" y="0" width="273" height="273">
<path fill-rule="evenodd" clip-rule="evenodd" d="M0.991455 136.004C0.991455 211.117 61.8825 272.01 136.998 272.01C212.109 272.01 272.999 211.117 272.999 136.004C272.999 60.8913 212.109 0 136.998 0C61.8825 0 0.991455 60.8913 0.991455 136.004" fill="white"/>
</mask>
<g mask="url(#mask0)">
<path fill-rule="evenodd" clip-rule="evenodd" d="M136.996 39.9311C83.9366 39.9311 40.923 82.9447 40.923 136.004C40.923 159.079 49.0641 180.247 62.6215 196.81L41.9732 232.076H136.996C190.055 232.076 233.068 189.063 233.068 136.004C233.068 82.9447 190.055 39.9311 136.996 39.9311" fill="white"/>
<path fill-rule="evenodd" clip-rule="evenodd" d="M169.468 141.993C160.501 141.993 153.232 149.263 153.232 158.229C153.232 167.196 160.501 174.466 169.468 174.466C178.434 174.466 185.705 167.196 185.705 158.229C185.705 149.263 178.434 141.993 169.468 141.993" fill="black" fill-opacity="0.87"/>
<path fill-rule="evenodd" clip-rule="evenodd" d="M153.192 103.127C152.719 110.065 147.68 115.97 140.947 117.714C140.89 117.729 140.832 117.745 140.774 117.758C134.375 119.34 129.025 123.722 125.731 129.43L123.771 132.825C119.888 139.55 118.938 147.445 120.449 155.06C120.781 156.723 120.856 158.477 120.634 160.282C119.75 167.465 114.024 173.305 106.855 174.303C96.4714 175.747 87.6378 167.362 88.3254 157.11C88.7906 150.171 93.8252 144.26 100.555 142.506C100.615 142.491 100.672 142.477 100.73 142.462C107.144 140.866 112.505 136.474 115.81 130.749L117.749 127.39C121.631 120.667 122.581 112.769 121.071 105.154C120.74 103.493 120.665 101.74 120.886 99.9357C121.769 92.7502 127.498 86.9086 134.668 85.9118C145.058 84.4694 153.893 92.8677 153.192 103.127" fill="black" fill-opacity="0.87"/>
</g>
</svg>
