<svg width="355" height="300" viewBox="0 0 355 300" fill="none" xmlns="http://www.w3.org/2000/svg">
<path d="M310.246 62.3388C115.044 -61.6612 33.0991 29.6721 6.45043 77.0054L5.11786 80.3387C-22.1971 157.005 67.7423 180.339 88.3951 176.339C83.7316 228.339 129.034 224.339 148.355 224.339C158.782 224.339 174.337 219.005 174.337 224.339C174.337 228.605 183.109 266.117 190.66 270.339C212.19 300 255.828 296.667 266.82 300C267.486 299.333 267.486 295.374 269.818 295.374C261.997 289.353 243.98 279.679 244.954 277.005C239.293 272.672 230.299 258.339 238.294 247.672C264.943 252.339 302.917 235.005 302.251 210.339C368.207 217.005 373.932 102.795 310.246 62.3388Z" fill="white"/>
</svg>
