<svg width="362" height="522" viewBox="0 0 362 522" fill="none" xmlns="http://www.w3.org/2000/svg">
<rect width="360" height="520" rx="8" fill="url(#paint0_linear)"/>
<path fill-rule="evenodd" clip-rule="evenodd" d="M180 190C224.183 190 260 154.183 260 110C260 65.8172 224.183 30 180 30C135.817 30 100 65.8172 100 110C100 154.183 135.817 190 180 190Z" stroke="black" stroke-opacity="0.6"/>
<path d="M196.645 101.837H184.696V134.24H175.098V101.837H163.368V94.427H196.645V101.837Z" fill="black"/>
<path d="M115.922 215.789H110.438V231H108.199V215.789H102.727V213.938H115.922V215.789ZM116.367 224.543C116.367 223.301 116.609 222.184 117.094 221.191C117.586 220.199 118.266 219.434 119.133 218.895C120.008 218.355 121.004 218.086 122.121 218.086C123.848 218.086 125.242 218.684 126.305 219.879C127.375 221.074 127.91 222.664 127.91 224.648V224.801C127.91 226.035 127.672 227.145 127.195 228.129C126.727 229.105 126.051 229.867 125.168 230.414C124.293 230.961 123.285 231.234 122.145 231.234C120.426 231.234 119.031 230.637 117.961 229.441C116.898 228.246 116.367 226.664 116.367 224.695V224.543ZM118.547 224.801C118.547 226.207 118.871 227.336 119.52 228.188C120.176 229.039 121.051 229.465 122.145 229.465C123.246 229.465 124.121 229.035 124.77 228.176C125.418 227.309 125.742 226.098 125.742 224.543C125.742 223.152 125.41 222.027 124.746 221.168C124.09 220.301 123.215 219.867 122.121 219.867C121.051 219.867 120.188 220.293 119.531 221.145C118.875 221.996 118.547 223.215 118.547 224.801ZM132.668 218.32L132.727 219.727C133.656 218.633 134.91 218.086 136.488 218.086C138.262 218.086 139.469 218.766 140.109 220.125C140.531 219.516 141.078 219.023 141.75 218.648C142.43 218.273 143.23 218.086 144.152 218.086C146.934 218.086 148.348 219.559 148.395 222.504V231H146.227V222.633C146.227 221.727 146.02 221.051 145.605 220.605C145.191 220.152 144.496 219.926 143.52 219.926C142.715 219.926 142.047 220.168 141.516 220.652C140.984 221.129 140.676 221.773 140.59 222.586V231H138.41V222.691C138.41 220.848 137.508 219.926 135.703 219.926C134.281 219.926 133.309 220.531 132.785 221.742V231H130.617V218.32H132.668ZM167.391 226.547H160.242L158.637 231H156.316L162.832 213.938H164.801L171.328 231H169.02L167.391 226.547ZM160.922 224.695H166.723L163.816 216.715L160.922 224.695ZM175.336 218.32L175.406 219.914C176.375 218.695 177.641 218.086 179.203 218.086C181.883 218.086 183.234 219.598 183.258 222.621V231H181.09V222.609C181.082 221.695 180.871 221.02 180.457 220.582C180.051 220.145 179.414 219.926 178.547 219.926C177.844 219.926 177.227 220.113 176.695 220.488C176.164 220.863 175.75 221.355 175.453 221.965V231H173.285V218.32H175.336ZM186 224.555C186 222.609 186.461 221.047 187.383 219.867C188.305 218.68 189.512 218.086 191.004 218.086C192.488 218.086 193.664 218.594 194.531 219.609V213H196.699V231H194.707L194.602 229.641C193.734 230.703 192.527 231.234 190.98 231.234C189.512 231.234 188.312 230.633 187.383 229.43C186.461 228.227 186 226.656 186 224.719V224.555ZM188.168 224.801C188.168 226.238 188.465 227.363 189.059 228.176C189.652 228.988 190.473 229.395 191.52 229.395C192.895 229.395 193.898 228.777 194.531 227.543V221.719C193.883 220.523 192.887 219.926 191.543 219.926C190.48 219.926 189.652 220.336 189.059 221.156C188.465 221.977 188.168 223.191 188.168 224.801ZM205.336 231.234C203.617 231.234 202.219 230.672 201.141 229.547C200.062 228.414 199.523 226.902 199.523 225.012V224.613C199.523 223.355 199.762 222.234 200.238 221.25C200.723 220.258 201.395 219.484 202.254 218.93C203.121 218.367 204.059 218.086 205.066 218.086C206.715 218.086 207.996 218.629 208.91 219.715C209.824 220.801 210.281 222.355 210.281 224.379V225.281H201.691C201.723 226.531 202.086 227.543 202.781 228.316C203.484 229.082 204.375 229.465 205.453 229.465C206.219 229.465 206.867 229.309 207.398 228.996C207.93 228.684 208.395 228.27 208.793 227.754L210.117 228.785C209.055 230.418 207.461 231.234 205.336 231.234ZM205.066 219.867C204.191 219.867 203.457 220.188 202.863 220.828C202.27 221.461 201.902 222.352 201.762 223.5H208.113V223.336C208.051 222.234 207.754 221.383 207.223 220.781C206.691 220.172 205.973 219.867 205.066 219.867ZM218.93 220.266C218.602 220.211 218.246 220.184 217.863 220.184C216.441 220.184 215.477 220.789 214.969 222V231H212.801V218.32H214.91L214.945 219.785C215.656 218.652 216.664 218.086 217.969 218.086C218.391 218.086 218.711 218.141 218.93 218.25V220.266ZM228.316 227.637C228.316 227.051 228.094 226.598 227.648 226.277C227.211 225.949 226.441 225.668 225.34 225.434C224.246 225.199 223.375 224.918 222.727 224.59C222.086 224.262 221.609 223.871 221.297 223.418C220.992 222.965 220.84 222.426 220.84 221.801C220.84 220.762 221.277 219.883 222.152 219.164C223.035 218.445 224.16 218.086 225.527 218.086C226.965 218.086 228.129 218.457 229.02 219.199C229.918 219.941 230.367 220.891 230.367 222.047H228.188C228.188 221.453 227.934 220.941 227.426 220.512C226.926 220.082 226.293 219.867 225.527 219.867C224.738 219.867 224.121 220.039 223.676 220.383C223.23 220.727 223.008 221.176 223.008 221.73C223.008 222.254 223.215 222.648 223.629 222.914C224.043 223.18 224.789 223.434 225.867 223.676C226.953 223.918 227.832 224.207 228.504 224.543C229.176 224.879 229.672 225.285 229.992 225.762C230.32 226.23 230.484 226.805 230.484 227.484C230.484 228.617 230.031 229.527 229.125 230.215C228.219 230.895 227.043 231.234 225.598 231.234C224.582 231.234 223.684 231.055 222.902 230.695C222.121 230.336 221.508 229.836 221.062 229.195C220.625 228.547 220.406 227.848 220.406 227.098H222.574C222.613 227.824 222.902 228.402 223.441 228.832C223.988 229.254 224.707 229.465 225.598 229.465C226.418 229.465 227.074 229.301 227.566 228.973C228.066 228.637 228.316 228.191 228.316 227.637ZM232.734 224.543C232.734 223.301 232.977 222.184 233.461 221.191C233.953 220.199 234.633 219.434 235.5 218.895C236.375 218.355 237.371 218.086 238.488 218.086C240.215 218.086 241.609 218.684 242.672 219.879C243.742 221.074 244.277 222.664 244.277 224.648V224.801C244.277 226.035 244.039 227.145 243.562 228.129C243.094 229.105 242.418 229.867 241.535 230.414C240.66 230.961 239.652 231.234 238.512 231.234C236.793 231.234 235.398 230.637 234.328 229.441C233.266 228.246 232.734 226.664 232.734 224.695V224.543ZM234.914 224.801C234.914 226.207 235.238 227.336 235.887 228.188C236.543 229.039 237.418 229.465 238.512 229.465C239.613 229.465 240.488 229.035 241.137 228.176C241.785 227.309 242.109 226.098 242.109 224.543C242.109 223.152 241.777 222.027 241.113 221.168C240.457 220.301 239.582 219.867 238.488 219.867C237.418 219.867 236.555 220.293 235.898 221.145C235.242 221.996 234.914 223.215 234.914 224.801ZM249.047 218.32L249.117 219.914C250.086 218.695 251.352 218.086 252.914 218.086C255.594 218.086 256.945 219.598 256.969 222.621V231H254.801V222.609C254.793 221.695 254.582 221.02 254.168 220.582C253.762 220.145 253.125 219.926 252.258 219.926C251.555 219.926 250.938 220.113 250.406 220.488C249.875 220.863 249.461 221.355 249.164 221.965V231H246.996V218.32H249.047Z" fill="black" fill-opacity="0.87"/>
<path d="M172.129 490.361C172.129 491.631 171.912 492.574 171.479 493.191C171.045 493.809 170.367 494.117 169.445 494.117C168.535 494.117 167.861 493.816 167.424 493.215C166.986 492.609 166.76 491.707 166.744 490.508V489.061C166.744 487.807 166.961 486.875 167.395 486.266C167.828 485.656 168.508 485.352 169.434 485.352C170.352 485.352 171.027 485.646 171.461 486.236C171.895 486.822 172.117 487.729 172.129 488.955V490.361ZM171.045 488.879C171.045 487.961 170.916 487.293 170.658 486.875C170.4 486.453 169.992 486.242 169.434 486.242C168.879 486.242 168.475 486.451 168.221 486.869C167.967 487.287 167.836 487.93 167.828 488.797V490.531C167.828 491.453 167.961 492.135 168.227 492.576C168.496 493.014 168.902 493.232 169.445 493.232C169.98 493.232 170.377 493.025 170.635 492.611C170.896 492.197 171.033 491.545 171.045 490.654V488.879ZM178.867 490.361C178.867 491.631 178.65 492.574 178.217 493.191C177.783 493.809 177.105 494.117 176.184 494.117C175.273 494.117 174.6 493.816 174.162 493.215C173.725 492.609 173.498 491.707 173.482 490.508V489.061C173.482 487.807 173.699 486.875 174.133 486.266C174.566 485.656 175.246 485.352 176.172 485.352C177.09 485.352 177.766 485.646 178.199 486.236C178.633 486.822 178.855 487.729 178.867 488.955V490.361ZM177.783 488.879C177.783 487.961 177.654 487.293 177.396 486.875C177.139 486.453 176.73 486.242 176.172 486.242C175.617 486.242 175.213 486.451 174.959 486.869C174.705 487.287 174.574 487.93 174.566 488.797V490.531C174.566 491.453 174.699 492.135 174.965 492.576C175.234 493.014 175.641 493.232 176.184 493.232C176.719 493.232 177.115 493.025 177.373 492.611C177.635 492.197 177.771 491.545 177.783 490.654V488.879ZM180.332 493.432C180.332 493.244 180.387 493.088 180.496 492.963C180.609 492.838 180.777 492.775 181 492.775C181.223 492.775 181.391 492.838 181.504 492.963C181.621 493.088 181.68 493.244 181.68 493.432C181.68 493.611 181.621 493.762 181.504 493.883C181.391 494.004 181.223 494.064 181 494.064C180.777 494.064 180.609 494.004 180.496 493.883C180.387 493.762 180.332 493.611 180.332 493.432ZM180.338 488.258C180.338 488.07 180.393 487.914 180.502 487.789C180.615 487.664 180.783 487.602 181.006 487.602C181.229 487.602 181.396 487.664 181.51 487.789C181.627 487.914 181.686 488.07 181.686 488.258C181.686 488.438 181.627 488.588 181.51 488.709C181.396 488.83 181.229 488.891 181.006 488.891C180.783 488.891 180.615 488.83 180.502 488.709C180.393 488.588 180.338 488.438 180.338 488.258ZM188.752 494H183.162V493.221L186.115 489.939C186.553 489.443 186.854 489.041 187.018 488.732C187.186 488.42 187.27 488.098 187.27 487.766C187.27 487.32 187.135 486.955 186.865 486.67C186.596 486.385 186.236 486.242 185.787 486.242C185.248 486.242 184.828 486.396 184.527 486.705C184.23 487.01 184.082 487.436 184.082 487.982H182.998C182.998 487.197 183.25 486.562 183.754 486.078C184.262 485.594 184.939 485.352 185.787 485.352C186.58 485.352 187.207 485.561 187.668 485.979C188.129 486.393 188.359 486.945 188.359 487.637C188.359 488.477 187.824 489.477 186.754 490.637L184.469 493.115H188.752V494ZM191.477 489.207H192.291C192.803 489.199 193.205 489.064 193.498 488.803C193.791 488.541 193.938 488.188 193.938 487.742C193.938 486.742 193.439 486.242 192.443 486.242C191.975 486.242 191.6 486.377 191.318 486.646C191.041 486.912 190.902 487.266 190.902 487.707H189.818C189.818 487.031 190.064 486.471 190.557 486.025C191.053 485.576 191.682 485.352 192.443 485.352C193.248 485.352 193.879 485.564 194.336 485.99C194.793 486.416 195.021 487.008 195.021 487.766C195.021 488.137 194.9 488.496 194.658 488.844C194.42 489.191 194.094 489.451 193.68 489.623C194.148 489.771 194.51 490.018 194.764 490.361C195.021 490.705 195.15 491.125 195.15 491.621C195.15 492.387 194.9 492.994 194.4 493.443C193.9 493.893 193.25 494.117 192.449 494.117C191.648 494.117 190.996 493.9 190.492 493.467C189.992 493.033 189.742 492.461 189.742 491.75H190.832C190.832 492.199 190.979 492.559 191.271 492.828C191.564 493.098 191.957 493.232 192.449 493.232C192.973 493.232 193.373 493.096 193.65 492.822C193.928 492.549 194.066 492.156 194.066 491.645C194.066 491.148 193.914 490.768 193.609 490.502C193.305 490.236 192.865 490.1 192.291 490.092H191.477V489.207Z" fill="white"/>
<path d="M2 442H362V514C362 518.418 358.418 522 354 522H10C5.58172 522 2 518.418 2 514V442Z" fill="black" fill-opacity="0.05"/>
<path fill-rule="evenodd" clip-rule="evenodd" d="M326.375 490.64L308.943 473.208L307.625 474.527L312.557 479.458H307.625V485.708H311.775L317 490.933V483.902L321.443 488.345C320.695 488.931 319.913 489.338 319.1 489.566V491.714C320.434 491.389 321.704 490.754 322.908 489.81L325.057 491.958L326.375 490.64ZM317 478.628V474.234L314.803 476.431L317 478.628ZM324.275 482.583C324.275 480.923 323.795 479.458 322.835 478.189C321.875 476.919 320.63 476.057 319.1 475.601V473.452C321.215 473.908 322.957 474.99 324.324 476.699C325.691 478.408 326.375 480.37 326.375 482.583C326.375 484.146 326.017 485.594 325.301 486.929L323.738 485.318C324.096 484.439 324.275 483.527 324.275 482.583ZM321.639 483.218C321.671 483.088 321.688 482.876 321.688 482.583C321.688 480.63 320.825 479.23 319.1 478.384V480.679L321.639 483.218Z" fill="white"/>
<g filter="url(#filter0_d)">
<path fill-rule="evenodd" clip-rule="evenodd" d="M181 470C196.464 470 209 457.464 209 442C209 426.536 196.464 414 181 414C165.536 414 153 426.536 153 442C153 457.464 165.536 470 181 470Z" fill="white"/>
<path fill-rule="evenodd" clip-rule="evenodd" d="M182.88 446.842L184.804 444.756C185.04 444.5 185.389 444.415 185.695 444.529C186.675 444.879 187.733 445.069 188.817 445.069C189.298 445.069 189.691 445.496 189.691 446.017V449.326C189.691 449.847 189.298 450.274 188.817 450.274C180.607 450.274 173.953 443.059 173.953 434.157C173.953 433.635 174.346 433.209 174.827 433.209H177.888C178.368 433.209 178.762 433.635 178.762 434.157C178.762 435.342 178.937 436.479 179.26 437.541C179.356 437.873 179.286 438.243 179.042 438.508L177.118 440.594C178.377 443.277 180.406 445.467 182.88 446.842Z" fill="#9FD44E"/>
</g>
<path fill-rule="evenodd" clip-rule="evenodd" d="M61.037 472.993C60.6614 472.617 60.2182 472.43 59.7073 472.43H44.2927C43.7819 472.43 43.3387 472.617 42.9631 472.993C42.5875 473.369 42.3997 473.812 42.3997 474.323V491.63L46.2308 487.799H59.7073C60.2182 487.799 60.6614 487.604 61.037 487.213C61.4126 486.823 61.6004 486.372 61.6004 485.861V474.323C61.6004 473.812 61.4126 473.369 61.037 472.993ZM57.7692 476.261V478.199H46.2308V476.261H57.7692ZM57.7692 479.145V481.084H46.2308V479.145H57.7692ZM57.7692 483.968V482.03H46.2308V483.968H57.7692Z" fill="white"/>
<g style="mix-blend-mode:multiply">
<path fill-rule="evenodd" clip-rule="evenodd" d="M181 389C196.464 389 209 376.464 209 361C209 345.536 196.464 333 181 333C165.536 333 153 345.536 153 361C153 376.464 165.536 389 181 389Z" fill="white"/>
<path fill-rule="evenodd" clip-rule="evenodd" d="M187.833 365.757C188.704 365.757 189.417 365.066 189.417 364.221V356.537C189.417 355.692 188.704 355 187.833 355H175.167C174.296 355 173.583 355.692 173.583 356.537V364.221C173.583 365.066 174.296 365.757 175.167 365.757H172V367.294H191V365.757H187.833V365.757ZM175.167 356.537H187.833V364.221H175.167V356.537V356.537Z" fill="#4B5854"/>
<path fill-rule="evenodd" clip-rule="evenodd" d="M100 389C115.464 389 128 376.464 128 361C128 345.536 115.464 333 100 333C84.536 333 72 345.536 72 361C72 376.464 84.536 389 100 389Z" fill="white"/>
<path fill-rule="evenodd" clip-rule="evenodd" d="M262 389C277.464 389 290 376.464 290 361C290 345.536 277.464 333 262 333C246.536 333 234 345.536 234 361C234 376.464 246.536 389 262 389Z" fill="white"/>
<path fill-rule="evenodd" clip-rule="evenodd" d="M262 351C262.464 351 262.873 351.176 263.228 351.528C263.583 351.88 263.76 352.286 263.76 352.747C263.76 353.207 263.583 353.613 263.228 353.965C262.873 354.317 262.464 354.493 262 354.493C261.536 354.493 261.127 354.317 260.772 353.965C260.417 353.613 260.24 353.207 260.24 352.747C260.24 352.286 260.417 351.88 260.772 351.528C261.127 351.176 261.536 351 262 351ZM262 356.199C262.464 356.199 262.873 356.375 263.228 356.727C263.583 357.079 263.76 357.485 263.76 357.946C263.76 358.406 263.583 358.812 263.228 359.164C262.873 359.516 262.464 359.692 262 359.692C261.536 359.692 261.127 359.516 260.772 359.164C260.417 358.812 260.24 358.406 260.24 357.946C260.24 357.485 260.417 357.079 260.772 356.727C261.127 356.375 261.536 356.199 262 356.199ZM267.24 356.199C267.704 356.199 268.113 356.375 268.468 356.727C268.823 357.079 269 357.485 269 357.946C269 358.406 268.823 358.812 268.468 359.164C268.113 359.516 267.704 359.692 267.24 359.692C266.776 359.692 266.366 359.516 266.012 359.164C265.657 358.812 265.48 358.406 265.48 357.946C265.48 357.485 265.657 357.079 266.012 356.727C266.366 356.375 266.776 356.199 267.24 356.199ZM267.24 361.398C267.704 361.398 268.113 361.574 268.468 361.926C268.823 362.279 269 362.685 269 363.145C269 363.605 268.823 364.012 268.468 364.364C268.113 364.716 267.704 364.892 267.24 364.892C266.776 364.892 266.366 364.716 266.012 364.364C265.657 364.012 265.48 363.605 265.48 363.145C265.48 362.685 265.657 362.279 266.012 361.926C266.366 361.574 266.776 361.398 267.24 361.398ZM262 361.398C262.464 361.398 262.873 361.574 263.228 361.926C263.583 362.279 263.76 362.685 263.76 363.145C263.76 363.605 263.583 364.012 263.228 364.364C262.873 364.716 262.464 364.892 262 364.892C261.536 364.892 261.127 364.716 260.772 364.364C260.417 364.012 260.24 363.605 260.24 363.145C260.24 362.685 260.417 362.279 260.772 361.926C261.127 361.574 261.536 361.398 262 361.398ZM267.24 354.493C266.776 354.493 266.366 354.317 266.012 353.965C265.657 353.613 265.48 353.207 265.48 352.747C265.48 352.286 265.657 351.88 266.012 351.528C266.366 351.176 266.776 351 267.24 351C267.704 351 268.113 351.176 268.468 351.528C268.823 351.88 269 352.286 269 352.747C269 353.207 268.823 353.613 268.468 353.965C268.113 354.317 267.704 354.493 267.24 354.493ZM256.76 361.398C257.224 361.398 257.634 361.574 257.988 361.926C258.343 362.279 258.52 362.685 258.52 363.145C258.52 363.605 258.343 364.012 257.988 364.364C257.634 364.716 257.224 364.892 256.76 364.892C256.296 364.892 255.887 364.716 255.532 364.364C255.177 364.012 255 363.605 255 363.145C255 362.685 255.177 362.279 255.532 361.926C255.887 361.574 256.296 361.398 256.76 361.398ZM256.76 356.199C257.224 356.199 257.634 356.375 257.988 356.727C258.343 357.079 258.52 357.485 258.52 357.946C258.52 358.406 258.343 358.812 257.988 359.164C257.634 359.516 257.224 359.692 256.76 359.692C256.296 359.692 255.887 359.516 255.532 359.164C255.177 358.812 255 358.406 255 357.946C255 357.485 255.177 357.079 255.532 356.727C255.887 356.375 256.296 356.199 256.76 356.199ZM256.76 351C257.224 351 257.634 351.176 257.988 351.528C258.343 351.88 258.52 352.286 258.52 352.747C258.52 353.207 258.343 353.613 257.988 353.965C257.634 354.317 257.224 354.493 256.76 354.493C256.296 354.493 255.887 354.317 255.532 353.965C255.177 353.613 255 353.207 255 352.747C255 352.286 255.177 351.88 255.532 351.528C255.887 351.176 256.296 351 256.76 351ZM262 366.598C262.464 366.598 262.873 366.774 263.228 367.126C263.583 367.478 263.76 367.884 263.76 368.344C263.76 368.805 263.583 369.211 263.228 369.563C262.873 369.915 262.464 370.091 262 370.091C261.536 370.091 261.127 369.915 260.772 369.563C260.417 369.211 260.24 368.805 260.24 368.344C260.24 367.884 260.417 367.478 260.772 367.126C261.127 366.774 261.536 366.598 262 366.598Z" fill="#4B5854"/>
<path fill-rule="evenodd" clip-rule="evenodd" d="M97 359.792H94.375V357.167H92.625V359.792H90V361.542H92.625V364.167H94.375V361.542H97V359.792V359.792ZM105.983 360.667C107.473 360.667 108.667 359.624 108.667 358.333C108.667 357.042 107.473 356 105.983 356C105.696 356 105.418 356.039 105.167 356.109C105.678 356.739 105.974 357.501 105.974 358.333C105.974 359.166 105.669 359.92 105.167 360.558C105.418 360.628 105.696 360.667 105.983 360.667V360.667ZM101.671 360.667C102.964 360.667 104 359.624 104 358.333C104 357.042 102.964 356 101.671 356C100.377 356 99.3333 357.042 99.3333 358.333C99.3333 359.624 100.377 360.667 101.671 360.667V360.667ZM107.5 363C108.163 363.528 108.603 364.2 108.603 365.054V366.5H111V365.054C111 363.94 109.106 363.253 107.5 363V363ZM101.083 363C99.3333 363 95.8333 363.7 95.8333 365.1V366.5H106.333V365.1C106.333 363.7 102.833 363 101.083 363V363Z" fill="#4B5854"/>
</g>
<g style="mix-blend-mode:multiply">
<path fill-rule="evenodd" clip-rule="evenodd" d="M262 329C277.464 329 290 316.464 290 301C290 285.536 277.464 273 262 273C246.536 273 234 285.536 234 301C234 316.464 246.536 329 262 329Z" fill="white"/>
<path fill-rule="evenodd" clip-rule="evenodd" d="M257 295V307.177H260.473V295H257ZM267.46 295H263.987V307.177H267.46V295Z" fill="#4B5854"/>
<path fill-rule="evenodd" clip-rule="evenodd" d="M100 329C115.464 329 128 316.464 128 301C128 285.536 115.464 273 100 273C84.536 273 72 285.536 72 301C72 316.464 84.536 329 100 329Z" fill="white"/>
<path fill-rule="evenodd" clip-rule="evenodd" d="M102.212 293.091C103.998 293.475 105.468 294.389 106.622 295.831C107.776 297.273 108.353 298.929 108.353 300.797C108.353 302.665 107.776 304.321 106.622 305.763C105.468 307.205 103.998 308.119 102.212 308.503V306.69C103.503 306.306 104.554 305.577 105.365 304.506C106.175 303.435 106.581 302.198 106.581 300.797C106.581 299.396 106.175 298.16 105.365 297.088C104.554 296.017 103.503 295.288 102.212 294.904V293.091ZM104.396 300.797C104.396 302.445 103.668 303.627 102.212 304.341V297.253C103.668 297.967 104.396 299.149 104.396 300.797ZM96.0305 298.16H92.5276V303.435H96.0305L100.44 307.844V293.75L96.0305 298.16Z" fill="#4B5854"/>
<path fill-rule="evenodd" clip-rule="evenodd" d="M180 329C195.464 329 208 316.464 208 301C208 285.536 195.464 273 180 273C164.536 273 152 285.536 152 301C152 316.464 164.536 329 180 329Z" fill="white"/>
<path fill-rule="evenodd" clip-rule="evenodd" d="M177 295.188V295C177 294.188 177.297 293.484 177.891 292.891C178.484 292.297 179.188 292 180 292C180.812 292 181.516 292.297 182.109 292.891C182.703 293.484 183 294.188 183 295V301.141L177 295.188ZM172.266 292.984L189 309.719L187.734 310.984L183.562 306.813C182.875 307.25 182.016 307.547 180.984 307.703V310.984H179.016V307.703C177.359 307.453 175.945 306.695 174.773 305.43C173.602 304.164 173.016 302.688 173.016 301H174.703C174.703 302.469 175.227 303.68 176.273 304.633C177.32 305.586 178.562 306.063 180 306.063C180.781 306.063 181.547 305.891 182.297 305.547L180.656 303.906C180.406 303.969 180.188 304 180 304C179.188 304 178.484 303.703 177.891 303.109C177.297 302.516 177 301.813 177 301V300.25L171 294.25L172.266 292.984ZM186.094 304.281C186.688 303.25 186.984 302.156 186.984 301H185.297C185.297 301.719 185.156 302.391 184.875 303.016L186.094 304.281Z" fill="#4B5854"/>
</g>
<defs>
<filter id="filter0_d" x="149" y="412" width="64" height="64" filterUnits="userSpaceOnUse" color-interpolation-filters="sRGB">
<feFlood flood-opacity="0" result="BackgroundImageFix"/>
<feColorMatrix in="SourceAlpha" type="matrix" values="0 0 0 0 0 0 0 0 0 0 0 0 0 0 0 0 0 0 127 0"/>
<feOffset dy="2"/>
<feGaussianBlur stdDeviation="2"/>
<feColorMatrix type="matrix" values="0 0 0 0 0 0 0 0 0 0 0 0 0 0 0 0 0 0 0.5 0"/>
<feBlend mode="normal" in2="BackgroundImageFix" result="effect1_dropShadow"/>
<feBlend mode="normal" in="SourceGraphic" in2="effect1_dropShadow" result="shape"/>
</filter>
<linearGradient id="paint0_linear" x1="344.777" y1="493.944" x2="380.67" y2="19.3296" gradientUnits="userSpaceOnUse">
<stop stop-color="#32CBBE"/>
<stop offset="1" stop-color="#9FD44E"/>
</linearGradient>
</defs>
</svg>
