<svg width="437" height="298" viewBox="0 0 437 298" fill="none" xmlns="http://www.w3.org/2000/svg">
<path d="M218.5 0C119.182 0 34.3641 61.7853 0 149C34.3641 236.215 119.182 298 218.5 298C317.917 298 402.636 236.215 437 149C402.636 61.7853 317.917 0 218.5 0ZM218.5 248.333C163.676 248.333 119.182 203.832 119.182 149C119.182 94.168 163.676 49.6667 218.5 49.6667C273.324 49.6667 317.818 94.168 317.818 149C317.818 203.832 273.324 248.333 218.5 248.333ZM218.5 89.4C185.626 89.4 158.909 116.121 158.909 149C158.909 181.879 185.626 208.6 218.5 208.6C251.374 208.6 278.091 181.879 278.091 149C278.091 116.121 251.374 89.4 218.5 89.4Z" fill="white"/>
</svg>
