<svg width="235" height="235" viewBox="0 0 235 235" fill="none" xmlns="http://www.w3.org/2000/svg">
<g clip-path="url(#clip0)">
<rect width="235" height="235" fill="white"/>
<rect x="-26" y="-34" width="277" height="332" fill="#0E0C0C"/>
<g style="mix-blend-mode:screen">
<path d="M62.9742 178.766C39.8802 178.766 25.4465 153.766 36.9935 133.766L93.2851 36.2659C104.832 16.2659 133.7 16.2659 145.247 36.2659L201.538 133.766C213.085 153.766 198.652 178.766 175.558 178.766L62.9742 178.766Z" fill="#F58681"/>
</g>
<g style="mix-blend-mode:screen" opacity="0.5">
<path d="M62.9742 177.253C39.8802 177.253 25.4465 152.253 36.9935 132.253L93.2851 34.7532C104.832 14.7532 133.7 14.7532 145.247 34.7532L201.538 132.253C213.085 152.253 198.652 177.253 175.558 177.253L62.9742 177.253Z" fill="#F58681"/>
</g>
<g style="mix-blend-mode:screen">
<path d="M174.798 54.0063C197.892 54.0063 212.326 79.0063 200.779 99.0063L144.487 196.506C132.94 216.506 104.073 216.506 92.5256 196.506L36.2339 99.0063C24.6869 79.0063 39.1207 54.0064 62.2147 54.0063L174.798 54.0063Z" fill="url(#paint0_linear)"/>
</g>
<g style="mix-blend-mode:screen">
<path d="M194.753 87.7724C214.753 99.3194 214.753 128.187 194.753 139.734L97.2532 196.026C77.2532 207.573 52.2532 193.139 52.2532 170.045V57.4615C52.2532 34.3675 77.2532 19.9338 97.2532 31.4808L194.753 87.7724Z" fill="#F58681"/>
</g>
<g style="mix-blend-mode:screen">
<path d="M132.253 31.4808C152.253 19.9338 177.253 34.3675 177.253 57.4615L177.253 170.045C177.253 193.139 152.253 207.573 132.253 196.026L34.7532 139.734C14.7532 128.187 14.7532 99.3194 34.7532 87.7724L132.253 31.4808Z" fill="#F58681"/>
</g>
</g>
<defs>
<linearGradient id="paint0_linear" x1="226.76" y1="54.0063" x2="10.2532" y2="179.006" gradientUnits="userSpaceOnUse">
<stop stop-color="#9CCDD6"/>
<stop offset="1" stop-color="#F58681"/>
</linearGradient>
<clipPath id="clip0">
<rect width="235" height="235" fill="white"/>
</clipPath>
</defs>
</svg>
