<svg width="294" height="340" viewBox="0 0 294 340" fill="none" xmlns="http://www.w3.org/2000/svg">
<path d="M294 77.9167V283.333C294 314.5 268.473 340 237.273 340H133.745C118.429 340 103.964 333.908 93.3273 323.142L0.436363 212C0.436363 212 -0.130917 192.667 0.436356 192.383C3.55636 189.692 7.38544 188.275 11.64 188.275C14.76 188.275 17.5964 189.125 20.1491 190.542C20.7164 190.683 81.2727 225.392 81.2727 225.392V56.6667C81.2727 44.9083 90.7745 35.4167 102.545 35.4167C114.316 35.4167 123.818 44.9083 123.818 56.6667V155.833H138V21.25C138 9.49167 147.502 0 159.273 0C171.044 0 180.545 9.49167 180.545 21.25V155.833H194.727V35.4167C194.727 23.6583 204.229 14.1667 216 14.1667C227.771 14.1667 237.273 23.6583 237.273 35.4167V155.833H251.455V77.9167C251.455 66.1583 260.956 56.6667 272.727 56.6667C284.498 56.6667 294 66.1583 294 77.9167Z" fill="white"/>
</svg>
