<svg version="1.1" id="Layer_1" xmlns="http://www.w3.org/2000/svg" x="0" y="0" viewBox="0 0 84.4 20.9" width="84" height="21" xml:space="preserve"><style>.st0{fill:#fff}</style><path id="Path_1490" class="st0" d="M10.7 13l3.3 4.8c.6 1 .2 2.2-.8 2.8-1 .6-2.2.3-2.8-.6l-4-6.5h-2v5.4c-.1 1.2-1 2.1-2.2 2-1.1 0-2.1-.9-2.2-2V2.4C-.1 1.2.8.2 1.9.2h6.5C12 0 15 2.7 15.2 6.3v.5c.1 2.9-1.8 5.4-4.5 6.2zM4.5 4v5.8h3.9c1.5-.1 2.7-1.4 2.6-2.9.1-1.5-1-2.8-2.5-2.9h-4z"/><path id="Path_1491" class="st0" d="M30.3.2c1 0 1.8.9 1.8 1.9s-.8 1.8-1.8 1.9h-6.9v4.7H28c1 0 1.8.9 1.8 1.9s-.8 1.8-1.8 1.9h-4.6v4.4h7.1c1 0 1.8.9 1.8 1.9s-.8 1.8-1.8 1.9h-9.8c-1 0-1.7-.8-1.7-1.7V2c-.1-1 .7-1.8 1.6-1.8h9.7z"/><path id="Path_1492" class="st0" d="M40.1 16.9h6c1 0 1.8.9 1.8 1.9s-.8 1.8-1.8 1.9h-8.6c-.9 0-1.7-.7-1.7-1.7V2.1c.1-1.1 1-2 2.2-2s2.1.9 2.2 2l-.1 14.8z"/><path id="Path_1493" class="st0" d="M55.8 15.9l-1.4 3.8c-.5 1-1.7 1.5-2.7 1.1-1.1-.4-1.6-1.6-1.3-2.7l5.9-16c.4-1.3 1.6-2.1 3-2h.2c1.3-.1 2.5.8 3 2l5.9 16c.4 1.1-.3 2.4-1.4 2.7-1 .3-2.2-.2-2.6-1.2l-1.5-3.7h-7.1zm5.6-3.8l-2.1-7.2-2.1 7.2h4.2z"/><path id="Path_1494" class="st0" d="M78.3 11.5v7.4c-.1 1.2-1 2.1-2.2 2-1.1 0-2.1-.9-2.2-2v-7.4l-5.8-8.2c-.6-1-.3-2.2.6-2.8.9-.7 2.1-.5 2.8.4l4.6 7L80.7.8c.7-.9 1.9-1 2.8-.4s1.2 1.9.6 2.8l-5.8 8.3z"/></svg>