<svg width="479" height="479" viewBox="0 0 479 479" fill="none" xmlns="http://www.w3.org/2000/svg">
<g style="mix-blend-mode:multiply">
<path d="M234.1 308.903L177.808 211.403C174.921 206.403 178.53 200.153 184.303 200.153L296.887 200.153C302.66 200.153 306.269 206.403 303.382 211.403L247.09 308.903C244.203 313.903 236.987 313.903 234.1 308.903Z" stroke="#FF214A" stroke-width="45"/>
</g>
<g style="mix-blend-mode:multiply">
<path d="M233.672 171.156C236.559 166.156 243.776 166.156 246.663 171.156L302.954 268.656C305.841 273.656 302.233 279.906 296.459 279.906L183.876 279.906C178.102 279.906 174.494 273.656 177.381 268.656L233.672 171.156Z" stroke="#C2C7C7" stroke-width="45"/>
</g>
<g style="mix-blend-mode:multiply">
<path d="M269.255 177.029C274.255 174.142 280.505 177.751 280.505 183.524L280.505 296.108C280.505 301.881 274.255 305.49 269.255 302.603L171.755 246.311C166.755 243.424 166.755 236.208 171.755 233.321L269.255 177.029Z" stroke="#C2F2F2" stroke-width="45"/>
</g>
<g style="mix-blend-mode:multiply">
<path d="M200.167 183.615C200.167 177.841 206.417 174.233 211.417 177.12L308.917 233.411C313.917 236.298 313.918 243.515 308.917 246.402L211.417 302.693C206.417 305.58 200.167 301.972 200.167 296.198L200.167 183.615Z" stroke="#9AE5E6" stroke-width="45"/>
</g>
<g style="mix-blend-mode:overlay">
<rect x="177.167" y="257.519" width="91" height="91" rx="45.5" transform="rotate(-60 177.167 257.519)" fill="#92D9DA"/>
<rect x="192.493" y="253.412" width="68.5616" height="68.5616" rx="34.2808" transform="rotate(-60 192.493 253.412)" fill="white"/>
</g>
<path d="M216.579 321.542L157.619 219.421C147.227 201.421 160.217 178.921 181.002 178.921L298.921 178.921C319.706 178.921 332.696 201.421 322.304 219.421L263.344 321.542C252.952 339.542 226.971 339.542 216.579 321.542Z" stroke="white" stroke-width="6"/>
</svg>
