<svg width="403" height="787" viewBox="0 0 403 787" fill="none" xmlns="http://www.w3.org/2000/svg">
<g filter="url(#filter0_d)">
<path d="M342.632 8H60C31.2812 8 8 31.2812 8 60V726.958C8 755.677 31.2812 778.958 60 778.958H342.632C371.351 778.958 394.632 755.677 394.632 726.958V60C394.632 31.2812 371.351 8 342.632 8Z" fill="white"/>
<path opacity="0.3" d="M267.482 47.4076C271.715 47.4076 275.146 44.0155 275.146 39.8312C275.146 35.6468 271.715 32.2548 267.482 32.2548C263.249 32.2548 259.817 35.6468 259.817 39.8312C259.817 44.0155 263.249 47.4076 267.482 47.4076Z" fill="#E0DFD5"/>
<path opacity="0.3" d="M242.021 32.2548H134.54C130.355 32.2548 126.963 35.6468 126.963 39.8312C126.963 44.0155 130.355 47.4076 134.54 47.4076H242.021C246.205 47.4076 249.598 44.0155 249.598 39.8312C249.598 35.6468 246.205 32.2548 242.021 32.2548Z" fill="#E0DFD5"/>
</g>
<defs>
<filter id="filter0_d" x="0" y="0" width="402.632" height="786.958" filterUnits="userSpaceOnUse" color-interpolation-filters="sRGB">
<feFlood flood-opacity="0" result="BackgroundImageFix"/>
<feColorMatrix in="SourceAlpha" type="matrix" values="0 0 0 0 0 0 0 0 0 0 0 0 0 0 0 0 0 0 127 0"/>
<feOffset/>
<feGaussianBlur stdDeviation="4"/>
<feColorMatrix type="matrix" values="0 0 0 0 0 0 0 0 0 0 0 0 0 0 0 0 0 0 0.25 0"/>
<feBlend mode="normal" in2="BackgroundImageFix" result="effect1_dropShadow"/>
<feBlend mode="normal" in="SourceGraphic" in2="effect1_dropShadow" result="shape"/>
</filter>
</defs>
</svg>
