<svg width="222" height="55" viewBox="0 0 222 55" fill="none" xmlns="http://www.w3.org/2000/svg">
<path d="M28.449 34.0131L37.0976 46.5929C38.6701 49.2136 37.6217 52.3586 35.0009 53.9311C32.3802 55.5035 29.2352 54.7173 27.6627 52.3586L17.1796 35.3235H11.938V49.4757C11.6759 52.6207 9.31721 54.9794 6.17226 54.7173C3.28939 54.7173 0.668602 52.3586 0.406523 49.4757V6.23269C0.144444 3.08774 2.50315 0.466951 5.38602 0.466951H22.4212C31.856 -0.0572066 39.7184 7.01893 40.2425 16.4538V17.7642C40.5046 25.3645 35.5251 31.9164 28.449 34.0131ZM12.2001 10.426V25.6265H22.4212C26.3523 25.3645 29.4973 21.9574 29.2352 18.0262C29.4973 14.0951 26.6144 10.688 22.6832 10.426H12.2001Z" fill="black"/>
<path d="M79.8164 0.46698C82.4372 0.46698 84.5338 2.82569 84.5338 5.44648C84.5338 8.06727 82.4372 10.1639 79.8164 10.426H61.7329V22.7437H73.7886C76.4094 22.7437 78.506 25.1024 78.506 27.7232C78.506 30.344 76.4094 32.4406 73.7886 32.7027H61.7329V44.2342H80.3406C82.9614 44.2342 85.058 46.5929 85.058 49.2137C85.058 51.8345 82.9614 53.9311 80.3406 54.1932H54.6568C52.036 54.1932 50.2015 52.0965 50.2015 49.7378V5.1844C49.9394 2.56361 52.036 0.46698 54.3947 0.46698H79.8164V0.46698Z" fill="black"/>
<path d="M105.5 44.2342H121.225C123.846 44.2342 125.943 46.5929 125.943 49.2137C125.943 51.8344 123.846 53.9311 121.225 54.1932H98.6863C96.3276 54.1932 94.231 52.3586 94.231 49.7378V5.44646C94.493 2.56359 96.8517 0.20488 99.9967 0.20488C103.142 0.20488 105.5 2.56359 105.762 5.44646L105.5 44.2342V44.2342Z" fill="black"/>
<path d="M146.647 41.6134L142.978 51.5724C141.667 54.1932 138.522 55.5036 135.901 54.4552C133.019 53.4069 131.708 50.262 132.494 47.3791L147.957 5.44646C149.005 2.03944 152.15 -0.0571946 155.819 0.204884H156.344C159.751 -0.0571946 162.896 2.30152 164.206 5.44646L179.669 47.3791C180.717 50.262 178.882 53.669 175.999 54.4552C173.379 55.2415 170.234 53.9311 169.185 51.3103L165.254 41.6134H146.647V41.6134ZM161.323 31.6544L155.819 12.7847L150.316 31.6544H161.323Z" fill="black"/>
<path d="M205.614 30.0819V49.4758C205.352 52.6207 202.994 54.9794 199.849 54.7173C196.966 54.7173 194.345 52.3586 194.083 49.4758V30.0819L178.882 8.59143C177.31 5.97064 178.096 2.82569 180.455 1.25322C182.813 -0.581335 185.958 -0.0571769 187.793 2.30153L199.849 20.6471L211.904 2.03946C213.739 -0.319256 216.884 -0.581335 219.242 0.991139C221.601 2.56361 222.387 5.97064 220.815 8.32935L205.614 30.0819Z" fill="black"/>
</svg>
