<svg width="102" height="30" viewBox="0 0 102 30" fill="none" xmlns="http://www.w3.org/2000/svg">
<g clip-path="url(#clip0)">
<path d="M25.3 29.3V6.7C27 6.1 28.8 6 30.5 5.9C35.1 5.9 37.6 9.2 37.6 12.8C37.6 16.3 35.1 20 30.5 20C29.4 20 28.3 19.8 27.4 19.3V29.3H25.3V29.3ZM27.4 8.2V17.6C28.4 18 29.5 18.2 30.5 18.2C33.7 18.2 35.4 15.4 35.5 12.8C35.5 10.3 33.8 7.7 30.5 7.7C29.5 7.8 28.4 7.9 27.4 8.2ZM52.6 18.9C50.8 19.6 49.1 19.9 47.2 19.9C43.4 19.9 40.3 17.7 40.3 13.7V6.1H42.4V13.8C42.4 16.7 44.6 18.1 47.2 18.1C48.4 18.1 49.4 18 50.5 17.6V6H52.6V18.9ZM58.3 0.800003V6.5C59.2 6 60.3 5.8 61.4 5.8C66 5.8 68.4 9.4 68.4 12.9C68.4 16.4 65.9 19.8 61.4 19.8C59.7 19.8 57.9 19.7 56.2 19.1V0.800003H58.3V0.800003ZM66.4 12.9C66.4 10.4 64.7 7.6 61.4 7.6C60.4 7.6 59.3 7.8 58.3 8.2V17.7C59.3 18 60.4 18.1 61.4 18.1C64.7 18.1 66.5 15.4 66.4 12.9ZM75.8 19.6C73 19.9 71.5 18.5 71.5 15.5V0.800003H73.6V15.6C73.6 17.1 74 17.9 75.8 17.8V19.6ZM79.3 5.8H81.5V8.7H79.3V5.8ZM79.3 10.6H81.4V19.6H79.3V10.6ZM95 9.1C94 8.2 92.8 7.7 91.4 7.7C88.9 7.7 86.6 9.7 86.6 12.9C86.6 15.4 88.2 18 91.4 18C92.8 18 94.1 17.4 95.1 16.5L96.3 17.9C95.1 19.1 93.3 19.9 91.5 19.9C86.9 19.9 84.6 16.4 84.6 13C84.6 9.5 87 6 91.5 5.9C93.4 5.9 94.9 6.5 96.2 7.8L95 9.1V9.1Z" fill="white"/>
<path d="M1.1 6.2L1.3 8C2.9 5.5 6.1 6 7.7 6.6L7.1 7.8C6.9 7.7 6.6 7.6 6.4 7.5C4 6.8 1.3 8.2 1.3 11.1V19.8H0V6.2H1.1ZM20 16.9L21 17.6C19.7 19.2 17.9 19.9 15.9 19.9C11.6 19.9 9.3 16.2 9.4 12.8C9.4 9.4 11.6 6 15.9 6C19.6 6 22.2 8.8 22.2 12.5C22.2 12.8 22.2 13 22.1 13.4H10.6C10.8 16.1 12.6 18.6 15.9 18.6C17.4 18.6 19 18.1 20 16.9V16.9ZM20.9 12.2C20.8 9.3 18.7 7.4 15.8 7.3C12.7 7.3 11 9.5 10.6 12.2H20.9ZM37.1 27.1L36.6 29.2H35.7L34.5 24.9H35.3L36 27.9L36.1 28.7L36.3 27.9L36.9 25.4H37.7L38.4 27.9V28.7H38.5L38.6 27.9L39.3 24.9H40L38.9 29.2H38.1L37.5 27.1L37.3 26.2L37.1 27.1ZM45.7 24.9H46.4V29.2H45.7V24.9ZM55.4 29.2H54.5L53.2 27.5H52.9V29.2H52.2V24.9H53.6C54.5 24.9 55.1 25.3 55.1 26.3C55.1 27.1 54.6 27.5 54 27.6L55.4 29.2ZM53.6 26.9C54.1 26.9 54.4 26.7 54.4 26.2C54.4 25.8 54 25.5 53.6 25.5H52.9V26.9H53.6ZM63.3 25.6H61.6V26.8H63.3V27.5H61.6V28.7H63.3V29.4H60.8V25H63.3V25.6ZM71.3 29.2H69V24.9H69.7V28.6H71.3V29.2ZM79.3 25.6H77.6V26.8H79.3V27.5H77.6V28.7H79.3V29.4H76.8V25H79.3V25.6ZM86.3 26.7C87 26.8 87.7 27.1 87.6 28.1C87.5 28.9 86.8 29.3 86.2 29.3C85.6 29.3 85 29 84.8 28.3L85.3 28C85.5 28.4 85.9 28.7 86.2 28.7C86.6 28.7 86.9 28.5 86.9 28.1C87 27.6 86.5 27.4 86.1 27.3C85.5 27.2 84.8 26.9 84.9 26C84.9 25.1 85.6 24.8 86.3 24.8C86.9 24.8 87.4 25.2 87.7 25.7L87 26.1C86.9 25.7 86.5 25.5 86.2 25.5C85.9 25.5 85.5 25.7 85.5 26.1C85.5 26.4 85.9 26.6 86.3 26.7V26.7ZM94.6 26.7C95.3 26.8 96 27.1 95.9 28.1C95.8 28.9 95.1 29.3 94.5 29.3C93.9 29.3 93.3 29 93.1 28.3L93.6 28C93.8 28.4 94.2 28.7 94.5 28.7C94.9 28.7 95.2 28.5 95.2 28.1C95.3 27.6 94.8 27.4 94.4 27.3C93.8 27.2 93.1 26.9 93.2 26C93.2 25.1 93.9 24.8 94.6 24.8C95.2 24.8 95.7 25.2 96 25.7L95.4 26C95.3 25.6 94.9 25.4 94.6 25.4C94.3 25.4 93.9 25.6 93.9 26C93.9 26.4 94.3 26.6 94.6 26.7" fill="white"/>
<path d="M91.3 2.7C93 2.7 94.6 3.4 95.8 4.6L97.7 2.7C96 0.999997 93.7 0 91.3 0C88.8 0 86.5 0.999997 84.9 2.7L86.8 4.6C87.9 3.4 89.5 2.7 91.3 2.7Z" fill="white"/>
<path d="M101.3 1.2C101.3 1.9 100.8 2.4 100.1 2.4C99.4 2.4 98.9 1.9 98.9 1.2C98.9 0.499997 99.4 0 100.1 0C100.8 0 101.3 0.499997 101.3 1.2ZM99.3 1.2C99.3 1.7 99.7 2.1 100.2 2.1C100.7 2.1 101.1 1.7 101.1 1.2C101.1 0.699997 100.7 0.300003 100.2 0.300003C99.7 0.200003 99.3 0.699997 99.3 1.2ZM100 1.7H99.7V0.5H100.1C100.3 0.5 100.4 0.499998 100.5 0.599998C100.6 0.699998 100.6 0.700003 100.6 0.800003C100.6 0.900003 100.5 0.999998 100.4 1.1C100.5 1.2 100.5 1.2 100.6 1.4C100.6 1.5 100.7 1.6 100.7 1.7H100.4C100.4 1.6 100.3 1.6 100.3 1.4C100.3 1.3 100.2 1.3 100.1 1.3H100V1.7V1.7ZM100 1.1H100.1C100.2 1.1 100.4 1 100.4 1C100.4 0.9 100.3 0.900002 100.2 0.900002H100.1L100 1.1V1.1Z" fill="white"/>
</g>
<defs>
<clipPath id="clip0">
<rect width="101.3" height="29.4" fill="white"/>
</clipPath>
</defs>
</svg>
